<svg xmlns="http://www.w3.org/2000/svg" xmlns:xlink="http://www.w3.org/1999/xlink" xmlns:lucid="lucid" width="640" height="528"><g transform="translate(-80 -12)" lucid:page-tab-id="0_0"><path d="M0 0h1760v1360H0z" fill="#fff"/><path d="M396.28 32c-.24 0-.84.12-1.44.12-5.04.6-10.2 2.52-14.52 5.52-10.2 7.08-15.6 19.56-13.8 32.04 1.08 7.68 4.68 14.64 10.56 19.92 4.32 3.96 9.96 6.72 15.6 7.8 2.16.36 3 .36 5.64.36 2.64 0 3.48 0 5.52-.36 11.52-2.04 21.12-10.56 24.84-21.84 3.36-10.08 1.8-21-4.08-29.64-5.4-7.68-13.56-12.6-22.8-13.8-.84-.12-4.8-.12-5.52-.12z"/><path d="M420.52 95.36c-4.56 3.48-10.2 6-15.84 7.08-2.4.36-3.24.48-6.36.48-3 0-3.48 0-5.76-.36-5.52-.84-11.04-3.24-15.6-6.6l-1.08-.72-1.08.12c-.48.12-1.68.36-2.52.6-7.56 2.04-14.4 6-19.92 11.64-6.84 7.08-10.92 15.96-12.12 26.04-.24 2.28-.36 7.08-.12 8.88.6 3.72 1.44 5.76 3 7.32 1.68 1.56 3.96 2.28 7.32 2.16 2.52-.12 4.92-.6 11.52-2.04 7.68-1.68 11.16-2.28 15.84-2.76 1.92-.24 42.48-.24 44.4 0 4.56.48 8.16 1.08 15.84 2.76 6.48 1.44 9 1.92 11.52 2.04 2.4.12 4.08-.24 5.64-.96 1.68-.84 3-2.52 3.72-4.56.72-1.92.96-3.96 1.08-7.08.36-11.76-4.2-23.4-12.48-31.92-6.6-6.72-15.12-11.04-24.36-12.36-1.92-.36-1.92-.36-2.64.24z"/><path d="M100 140h160v160H100z" stroke="#000" stroke-width="2" fill="#fff"/><use xlink:href="#a" transform="matrix(1,0,0,1,105,145) translate(59.5 78.60000000000001)"/><path d="M540 140h160v160H540z" stroke="#000" stroke-width="2" fill="#fff"/><use xlink:href="#b" transform="matrix(1,0,0,1,545,145) translate(30.049999999999997 57)"/><use xlink:href="#c" transform="matrix(1,0,0,1,545,145) translate(66.05 57)"/><use xlink:href="#d" transform="matrix(1,0,0,1,545,145) translate(19.099999999999994 78.60000000000001)"/><use xlink:href="#e" transform="matrix(1,0,0,1,545,145) translate(53.05 100.20000000000002)"/><path d="M320 360h160v160H320z" stroke="#000" stroke-width="2" fill="#fff"/><use xlink:href="#f" transform="matrix(1,0,0,1,325,365) translate(11.624999999999993 78.60000000000001)"/><use xlink:href="#g" transform="matrix(1,0,0,1,325,365) translate(78.475 78.60000000000001)"/><path d="M180 301v139h120.5" stroke="#000" stroke-width="2" fill="none"/><path d="M181 301h-2v-1h2z"/><path d="M315.76 440l-14.26 4.64v-9.28z" stroke="#000" stroke-width="2"/><path d="M620 301v139H499.5" stroke="#000" stroke-width="2" fill="none"/><path d="M621 301h-2v-1h2z"/><path d="M484.24 440l14.26-4.64v9.28z" stroke="#000" stroke-width="2"/><path d="M400 359V165.64" stroke="#000" stroke-width="2" fill="none"/><path d="M401 360h-2v-1h2z"/><path d="M400 150.38l4.64 14.26h-9.28z" stroke="#000" stroke-width="2"/><defs><path d="M140-251c81 0 123 46 123 126C263-53 228-8 163 1c7 30 30 48 69 40v23c-55 16-95-15-103-61C56-3 17-48 17-125c0-80 42-126 123-126zm0 227c63 0 89-41 89-101s-29-99-89-99c-61 0-89 39-89 99S79-25 140-24" id="h"/><path d="M0 4l72-265h28L28 4H0" id="i"/><path d="M205 0l-28-72H64L36 0H1l101-248h38L239 0h-34zm-38-99l-47-123c-12 45-31 82-46 123h93" id="j"/><g id="a"><use transform="matrix(0.05,0,0,0.05,0,0)" xlink:href="#h"/><use transform="matrix(0.05,0,0,0.05,14,0)" xlink:href="#i"/><use transform="matrix(0.05,0,0,0.05,19,0)" xlink:href="#j"/></g><path d="M30 0v-248h187v28H63v79h144v27H63v87h162V0H30" id="k"/><path d="M179-190L93 31C79 59 56 82 12 73V49c39 6 53-20 64-50L1-190h34L92-34l54-156h33" id="l"/><path d="M100-194c63 0 86 42 84 106H49c0 40 14 67 53 68 26 1 43-12 49-29l28 8c-11 28-37 45-77 45C44 4 14-33 15-96c1-61 26-98 85-98zm52 81c6-60-76-77-97-28-3 7-6 17-6 28h103" id="m"/><g id="b"><use transform="matrix(0.05,0,0,0.05,0,0)" xlink:href="#k"/><use transform="matrix(0.05,0,0,0.05,12,0)" xlink:href="#l"/><use transform="matrix(0.05,0,0,0.05,21,0)" xlink:href="#m"/></g><path d="M240 0l2-218c-23 76-54 145-80 218h-23L58-218 59 0H30v-248h44l77 211c21-75 51-140 76-211h43V0h-30" id="n"/><path d="M100-194c62-1 85 37 85 99 1 63-27 99-86 99S16-35 15-95c0-66 28-99 85-99zM99-20c44 1 53-31 53-75 0-43-8-75-51-75s-53 32-53 75 10 74 51 75" id="o"/><path d="M59-47c-2 24 18 29 38 22v24C64 9 27 4 27-40v-127H5v-23h24l9-43h21v43h35v23H59v120" id="p"/><path d="M24-231v-30h32v30H24zM24 0v-190h32V0H24" id="q"/><path d="M117-194c89-4 53 116 60 194h-32v-121c0-31-8-49-39-48C34-167 62-67 57 0H25l-1-190h30c1 10-1 24 2 32 11-22 29-35 61-36" id="r"/><g id="c"><use transform="matrix(0.05,0,0,0.05,0,0)" xlink:href="#n"/><use transform="matrix(0.05,0,0,0.05,14.950000000000001,0)" xlink:href="#o"/><use transform="matrix(0.05,0,0,0.05,24.950000000000003,0)" xlink:href="#p"/><use transform="matrix(0.05,0,0,0.05,29.950000000000003,0)" xlink:href="#q"/><use transform="matrix(0.05,0,0,0.05,33.900000000000006,0)" xlink:href="#o"/><use transform="matrix(0.05,0,0,0.05,43.900000000000006,0)" xlink:href="#r"/></g><path d="M85-194c31 0 48 13 60 33l-1-100h32l1 261h-30c-2-10 0-23-3-31C134-8 116 4 85 4 32 4 16-35 15-94c0-66 23-100 70-100zm9 24c-40 0-46 34-46 75 0 40 6 74 45 74 42 0 51-32 51-76 0-42-9-74-50-73" id="s"/><path d="M24 0v-261h32V0H24" id="t"/><path d="M87 75C49 33 22-17 22-94c0-76 28-126 65-167h31c-38 41-64 92-64 168S80 34 118 75H87" id="u"/><path d="M185-189c-5-48-123-54-124 2 14 75 158 14 163 119 3 78-121 87-175 55-17-10-28-26-33-46l33-7c5 56 141 63 141-1 0-78-155-14-162-118-5-82 145-84 179-34 5 7 8 16 11 25" id="v"/><path d="M114-163C36-179 61-72 57 0H25l-1-190h30c1 12-1 29 2 39 6-27 23-49 58-41v29" id="w"/><path d="M96-169c-40 0-48 33-48 73s9 75 48 75c24 0 41-14 43-38l32 2c-6 37-31 61-74 61-59 0-76-41-82-99-10-93 101-131 147-64 4 7 5 14 7 22l-32 3c-4-21-16-35-41-35" id="x"/><path d="M106-169C34-169 62-67 57 0H25v-261h32l-1 103c12-21 28-36 61-36 89 0 53 116 60 194h-32v-121c2-32-8-49-39-48" id="y"/><g id="d"><use transform="matrix(0.05,0,0,0.05,0,0)" xlink:href="#n"/><use transform="matrix(0.05,0,0,0.05,14.950000000000001,0)" xlink:href="#o"/><use transform="matrix(0.05,0,0,0.05,24.950000000000003,0)" xlink:href="#s"/><use transform="matrix(0.05,0,0,0.05,34.95,0)" xlink:href="#m"/><use transform="matrix(0.05,0,0,0.05,44.95,0)" xlink:href="#t"/><use transform="matrix(0.05,0,0,0.05,48.900000000000006,0)" xlink:href="#u"/><use transform="matrix(0.05,0,0,0.05,54.85,0)" xlink:href="#v"/><use transform="matrix(0.05,0,0,0.05,66.85000000000001,0)" xlink:href="#p"/><use transform="matrix(0.05,0,0,0.05,71.85000000000001,0)" xlink:href="#w"/><use transform="matrix(0.05,0,0,0.05,77.80000000000001,0)" xlink:href="#m"/><use transform="matrix(0.05,0,0,0.05,87.80000000000001,0)" xlink:href="#p"/><use transform="matrix(0.05,0,0,0.05,92.80000000000001,0)" xlink:href="#x"/><use transform="matrix(0.05,0,0,0.05,101.80000000000001,0)" xlink:href="#y"/></g><path d="M143 4C61 4 22-44 18-125c-5-107 100-154 193-111 17 8 29 25 37 43l-32 9c-13-25-37-40-76-40-61 0-88 39-88 99 0 61 29 100 91 101 35 0 62-11 79-27v-45h-74v-28h105v86C228-13 192 4 143 4" id="z"/><path d="M141-36C126-15 110 5 73 4 37 3 15-17 15-53c-1-64 63-63 125-63 3-35-9-54-41-54-24 1-41 7-42 31l-33-3c5-37 33-52 76-52 45 0 72 20 72 64v82c-1 20 7 32 28 27v20c-31 9-61-2-59-35zM48-53c0 20 12 33 32 33 41-3 63-29 60-74-43 2-92-5-92 41" id="A"/><path d="M33-261c38 41 65 92 65 168S71 34 33 75H2C39 34 66-17 66-93S39-220 2-261h31" id="B"/><g id="e"><use transform="matrix(0.05,0,0,0.05,0,0)" xlink:href="#z"/><use transform="matrix(0.05,0,0,0.05,14,0)" xlink:href="#o"/><use transform="matrix(0.05,0,0,0.05,24,0)" xlink:href="#A"/><use transform="matrix(0.05,0,0,0.05,34,0)" xlink:href="#t"/><use transform="matrix(0.05,0,0,0.05,37.95,0)" xlink:href="#B"/></g><path d="M233-177c-1 41-23 64-60 70L243 0h-38l-65-103H63V0H30v-248c88 3 205-21 203 71zM63-129c60-2 137 13 137-47 0-61-80-42-137-45v92" id="C"/><path d="M206 0h-36l-40-164L89 0H53L-1-190h32L70-26l43-164h34l41 164 42-164h31" id="D"/><g id="f"><use transform="matrix(0.05,0,0,0.05,0,0)" xlink:href="#C"/><use transform="matrix(0.05,0,0,0.05,12.950000000000001,0)" xlink:href="#m"/><use transform="matrix(0.05,0,0,0.05,22.950000000000003,0)" xlink:href="#D"/><use transform="matrix(0.05,0,0,0.05,35.900000000000006,0)" xlink:href="#A"/><use transform="matrix(0.05,0,0,0.05,45.900000000000006,0)" xlink:href="#w"/><use transform="matrix(0.05,0,0,0.05,51.85,0)" xlink:href="#s"/></g><path d="M63-220v92h138v28H63V0H30v-248h175v28H63" id="E"/><g id="g"><use transform="matrix(0.05,0,0,0.05,0,0)" xlink:href="#E"/><use transform="matrix(0.05,0,0,0.05,10.950000000000001,0)" xlink:href="#A"/><use transform="matrix(0.05,0,0,0.05,20.950000000000003,0)" xlink:href="#x"/><use transform="matrix(0.05,0,0,0.05,29.950000000000003,0)" xlink:href="#p"/><use transform="matrix(0.05,0,0,0.05,34.95,0)" xlink:href="#o"/><use transform="matrix(0.05,0,0,0.05,44.95,0)" xlink:href="#w"/><use transform="matrix(0.05,0,0,0.05,50.900000000000006,0)" xlink:href="#l"/></g></defs></g></svg>