<svg xmlns="http://www.w3.org/2000/svg" xmlns:xlink="http://www.w3.org/1999/xlink" xmlns:lucid="lucid" width="1700" height="1328"><g transform="translate(-60 -12)" lucid:page-tab-id="0_0"><path d="M0 0h1760v1360H0z" fill="#fff"/><path d="M396.28 32c-.24 0-.84.12-1.44.12-5.04.6-10.2 2.52-14.52 5.52-10.2 7.08-15.6 19.56-13.8 32.04 1.08 7.68 4.68 14.64 10.56 19.92 4.32 3.96 9.96 6.72 15.6 7.8 2.16.36 3 .36 5.64.36 2.64 0 3.48 0 5.52-.36 11.52-2.04 21.12-10.56 24.84-21.84 3.36-10.08 1.8-21-4.08-29.64-5.4-7.68-13.56-12.6-22.8-13.8-.84-.12-4.8-.12-5.52-.12z"/><path d="M420.52 95.36c-4.56 3.48-10.2 6-15.84 7.08-2.4.36-3.24.48-6.36.48-3 0-3.48 0-5.76-.36-5.52-.84-11.04-3.24-15.6-6.6l-1.08-.72-1.08.12c-.48.12-1.68.36-2.52.6-7.56 2.04-14.4 6-19.92 11.64-6.84 7.08-10.92 15.96-12.12 26.04-.24 2.28-.36 7.08-.12 8.88.6 3.72 1.44 5.76 3 7.32 1.68 1.56 3.96 2.28 7.32 2.16 2.52-.12 4.92-.6 11.52-2.04 7.68-1.68 11.16-2.28 15.84-2.76 1.92-.24 42.48-.24 44.4 0 4.56.48 8.16 1.08 15.84 2.76 6.48 1.44 9 1.92 11.52 2.04 2.4.12 4.08-.24 5.64-.96 1.68-.84 3-2.52 3.72-4.56.72-1.92.96-3.96 1.08-7.08.36-11.76-4.2-23.4-12.48-31.92-6.6-6.72-15.12-11.04-24.36-12.36-1.92-.36-1.92-.36-2.64.24z"/><path d="M100 140h160v160H100z" stroke="#000" stroke-width="2" fill="#fff"/><use xlink:href="#a" transform="matrix(1,0,0,1,105,145) translate(59.5 78.60000000000001)"/><path d="M540 140h160v160H540z" stroke="#000" stroke-width="2" fill="#fff"/><use xlink:href="#b" transform="matrix(1,0,0,1,545,145) translate(30.049999999999997 57)"/><use xlink:href="#c" transform="matrix(1,0,0,1,545,145) translate(66.05 57)"/><use xlink:href="#d" transform="matrix(1,0,0,1,545,145) translate(19.099999999999994 78.60000000000001)"/><use xlink:href="#e" transform="matrix(1,0,0,1,545,145) translate(53.05 100.20000000000002)"/><path d="M320 360h160v160H320z" stroke="#000" stroke-width="2" fill="#fff"/><use xlink:href="#f" transform="matrix(1,0,0,1,325,365) translate(11.624999999999993 78.60000000000001)"/><use xlink:href="#g" transform="matrix(1,0,0,1,325,365) translate(78.475 78.60000000000001)"/><path d="M180 301v139h120.5" stroke="#000" stroke-width="2" fill="none"/><path d="M181 301h-2v-1h2z"/><path d="M315.76 440l-14.26 4.64v-9.28z" stroke="#000" stroke-width="2"/><path d="M620 301v139H499.5" stroke="#000" stroke-width="2" fill="none"/><path d="M621 301h-2v-1h2z"/><path d="M484.24 440l14.26-4.64v9.28z" stroke="#000" stroke-width="2"/><path d="M400 359V165.64" stroke="#000" stroke-width="2" fill="none"/><path d="M401 360h-2v-1h2z"/><path d="M400 150.38l4.64 14.26h-9.28z" stroke="#000" stroke-width="2"/><path d="M80 32h240v60H80z" stroke="#000" stroke-opacity="0" stroke-width="2" fill="#fff" fill-opacity="0"/><use xlink:href="#h" transform="matrix(1,0,0,1,85,37) translate(15.074999999999989 17.799999999999997)"/><use xlink:href="#i" transform="matrix(1,0,0,1,85,37) translate(106.02499999999999 17.799999999999997)"/><use xlink:href="#j" transform="matrix(1,0,0,1,85,37) translate(170.975 17.799999999999997)"/><use xlink:href="#k" transform="matrix(1,0,0,1,85,37) translate(81.1 39.4)"/><path d="M1300 260h420v200h-420z" stroke="#000" stroke-width="2" fill="#fff"/><path d="M1200 160v49.5h161.33v31" stroke="#000" stroke-width="2" fill="none"/><path/><path d="M1361.33 255.76l-4.63-14.26h9.27z" stroke="#000" stroke-width="2"/><path d="M1400 480h260v40h-260z" stroke="#000" stroke-opacity="0" stroke-width="2" fill="#fff" fill-opacity="0"/><use xlink:href="#l" transform="matrix(1,0,0,1,1405,485) translate(1.7499999999999858 18.6)"/><use xlink:href="#m" transform="matrix(1,0,0,1,1405,485) translate(111.55 18.6)"/><use xlink:href="#n" transform="matrix(1,0,0,1,1405,485) translate(213.40000000000003 18.6)"/><path d="M1320 280h380v160h-380z" stroke="#000" stroke-opacity="0" stroke-width="2" fill="#fff" fill-opacity="0"/><use xlink:href="#o" transform="matrix(1,0,0,1,1325,285) translate(28.299999999999983 46.19999999999999)"/><use xlink:href="#p" transform="matrix(1,0,0,1,1325,285) translate(49.249999999999986 46.19999999999999)"/><use xlink:href="#q" transform="matrix(1,0,0,1,1325,285) translate(124.14999999999999 46.19999999999999)"/><use xlink:href="#r" transform="matrix(1,0,0,1,1325,285) translate(196.49999999999997 46.19999999999999)"/><use xlink:href="#s" transform="matrix(1,0,0,1,1325,285) translate(283.35 46.19999999999999)"/><use xlink:href="#t" transform="matrix(1,0,0,1,1325,285) translate(325.25 46.19999999999999)"/><use xlink:href="#u" transform="matrix(1,0,0,1,1325,285) translate(122.05 67.8)"/><use xlink:href="#v" transform="matrix(1,0,0,1,1325,285) translate(182.05 67.8)"/><use xlink:href="#w" transform="matrix(1,0,0,1,1325,285) translate(8.524999999999977 89.4)"/><use xlink:href="#x" transform="matrix(1,0,0,1,1325,285) translate(29.474999999999977 89.4)"/><use xlink:href="#y" transform="matrix(1,0,0,1,1325,285) translate(107.37499999999999 89.4)"/><use xlink:href="#z" transform="matrix(1,0,0,1,1325,285) translate(137.375 89.4)"/><use xlink:href="#A" transform="matrix(1,0,0,1,1325,285) translate(217.175 89.4)"/><use xlink:href="#B" transform="matrix(1,0,0,1,1325,285) translate(237.175 89.4)"/><use xlink:href="#C" transform="matrix(1,0,0,1,1325,285) translate(292.52500000000003 89.4)"/><use xlink:href="#D" transform="matrix(1,0,0,1,1325,285) translate(341.475 89.4)"/><use xlink:href="#E" transform="matrix(1,0,0,1,1325,285) translate(68 111)"/><use xlink:href="#q" transform="matrix(1,0,0,1,1325,285) translate(104.9 111)"/><use xlink:href="#F" transform="matrix(1,0,0,1,1325,285) translate(177.25 111)"/><use xlink:href="#G" transform="matrix(1,0,0,1,1325,285) translate(237.1 111)"/><path d="M1020 600h400v180h-400z" stroke="#000" stroke-width="2" fill="#fff"/><use xlink:href="#H" transform="matrix(1,0,0,1,1025,605) translate(91.64999999999999 88.60000000000001)"/><use xlink:href="#I" transform="matrix(1,0,0,1,1025,605) translate(181.6 88.60000000000001)"/><use xlink:href="#J" transform="matrix(1,0,0,1,1025,605) translate(245.45 88.60000000000001)"/><path d="M1220 520v60.5" stroke="#000" stroke-width="2" fill="none"/><path/><path d="M1220 595.76l-4.64-14.26h9.28z" stroke="#000" stroke-width="2"/><path d="M1299 360h-79v81.5" stroke="#000" stroke-width="2" fill="none"/><path d="M1300 361h-1v-2h1z"/><path d="M1220 456.76l-4.64-14.26h9.28z" stroke="#000" stroke-width="2"/><path d="M1080 460h280v60h-280z" stroke="#000" stroke-opacity="0" stroke-width="2" fill="#fff" fill-opacity="0"/><use xlink:href="#K" transform="matrix(1,0,0,1,1085,465) translate(59.57499999999999 29.1)"/><use xlink:href="#L" transform="matrix(1,0,0,1,1085,465) translate(119.57499999999999 29.1)"/><path d="M1000 940h480v300h-480zm48 0v300m-48-252h480" stroke="#000" stroke-width="2" fill="#fff"/><path d="M1060 1040h380v160h-380z" stroke="#000" stroke-opacity="0" stroke-width="2" fill="#fff" fill-opacity="0"/><use xlink:href="#M" transform="matrix(1,0,0,1,1065,1045) translate(19.674999999999983 46.19999999999999)"/><use xlink:href="#N" transform="matrix(1,0,0,1,1065,1045) translate(118.57499999999999 46.19999999999999)"/><use xlink:href="#O" transform="matrix(1,0,0,1,1065,1045) translate(128.225 46.19999999999999)"/><use xlink:href="#N" transform="matrix(1,0,0,1,1065,1045) translate(206.125 46.19999999999999)"/><use xlink:href="#P" transform="matrix(1,0,0,1,1065,1045) translate(215.775 46.19999999999999)"/><use xlink:href="#Q" transform="matrix(1,0,0,1,1065,1045) translate(327.375 46.19999999999999)"/><use xlink:href="#o" transform="matrix(1,0,0,1,1065,1045) translate(114.39999999999999 67.8)"/><use xlink:href="#R" transform="matrix(1,0,0,1,1065,1045) translate(135.35 67.8)"/><use xlink:href="#N" transform="matrix(1,0,0,1,1065,1045) translate(178.35 67.8)"/><use xlink:href="#S" transform="matrix(1,0,0,1,1065,1045) translate(188 67.8)"/><use xlink:href="#N" transform="matrix(1,0,0,1,1065,1045) translate(220.95 67.8)"/><use xlink:href="#T" transform="matrix(1,0,0,1,1065,1045) translate(230.60000000000002 67.8)"/><use xlink:href="#w" transform="matrix(1,0,0,1,1065,1045) translate(68.975 89.4)"/><use xlink:href="#U" transform="matrix(1,0,0,1,1065,1045) translate(89.925 89.4)"/><use xlink:href="#y" transform="matrix(1,0,0,1,1065,1045) translate(156.775 89.4)"/><use xlink:href="#V" transform="matrix(1,0,0,1,1065,1045) translate(186.775 89.4)"/><use xlink:href="#N" transform="matrix(1,0,0,1,1065,1045) translate(225.725 89.4)"/><use xlink:href="#W" transform="matrix(1,0,0,1,1065,1045) translate(235.375 89.4)"/><use xlink:href="#N" transform="matrix(1,0,0,1,1065,1045) translate(281.375 89.4)"/><use xlink:href="#X" transform="matrix(1,0,0,1,1065,1045) translate(291.025 89.4)"/><use xlink:href="#Y" transform="matrix(1,0,0,1,1065,1045) translate(89.97499999999998 111)"/><use xlink:href="#Z" transform="matrix(1,0,0,1,1065,1045) translate(110.92499999999998 111)"/><use xlink:href="#aa" transform="matrix(1,0,0,1,1065,1045) translate(150.875 111)"/><use xlink:href="#N" transform="matrix(1,0,0,1,1065,1045) translate(202.77499999999998 111)"/><use xlink:href="#S" transform="matrix(1,0,0,1,1065,1045) translate(212.425 111)"/><use xlink:href="#N" transform="matrix(1,0,0,1,1065,1045) translate(245.375 111)"/><use xlink:href="#ab" transform="matrix(1,0,0,1,1065,1045) translate(255.02500000000003 111)"/><path d="M1240 781v30.5" stroke="#000" stroke-width="2" fill="none"/><path d="M1241 781h-2v-1h2z"/><path d="M1240 826.76l-4.64-14.26h9.28z" stroke="#000" stroke-width="2"/><path d="M1240 890v30.5" stroke="#000" stroke-width="2" fill="none"/><path/><path d="M1240 935.76l-4.64-14.26h9.28z" stroke="#000" stroke-width="2"/><path d="M1120 830h240v60h-240z" stroke="#000" stroke-opacity="0" stroke-width="2" fill="#fff" fill-opacity="0"/><g><use xlink:href="#K" transform="matrix(1,0,0,1,1125,835) translate(38.57499999999999 17.799999999999997)"/><use xlink:href="#ac" transform="matrix(1,0,0,1,1125,835) translate(98.57499999999999 17.799999999999997)"/><use xlink:href="#ad" transform="matrix(1,0,0,1,1125,835) translate(62.7 39.4)"/></g><path d="M1120 1260h280v60h-280z" stroke="#000" stroke-opacity="0" stroke-width="2" fill="#fff" fill-opacity="0"/><g><use xlink:href="#ae" transform="matrix(1,0,0,1,1125,1265) translate(11.774999999999977 28.6)"/><use xlink:href="#af" transform="matrix(1,0,0,1,1125,1265) translate(119.475 28.6)"/><use xlink:href="#ag" transform="matrix(1,0,0,1,1125,1265) translate(217.275 28.6)"/></g><path d="M1080 100h240v60h-240z" stroke="#000" stroke-opacity="0" stroke-width="2" fill="#fff" fill-opacity="0"/><g><use xlink:href="#a" transform="matrix(1,0,0,1,1085,105) translate(99.5 28.6)"/></g><path d="M1500 100h240v60h-240z" stroke="#000" stroke-opacity="0" stroke-width="2" fill="#fff" fill-opacity="0"/><g><use xlink:href="#b" transform="matrix(1,0,0,1,1505,105) translate(43.099999999999994 28.6)"/><use xlink:href="#ah" transform="matrix(1,0,0,1,1505,105) translate(79.1 28.6)"/><use xlink:href="#ai" transform="matrix(1,0,0,1,1505,105) translate(138 28.6)"/></g><path d="M1620 160v49.5h-110v31" stroke="#000" stroke-width="2" fill="none"/><path/><path d="M1510 255.76l-4.64-14.26h9.28z" stroke="#000" stroke-width="2"/><path d="M120 940h560v300H120z" stroke="#000" stroke-width="2" fill="#fff"/><path d="M200 1020h380v160H200z" stroke="#000" stroke-opacity="0" stroke-width="2" fill="#fff" fill-opacity="0"/><g><use xlink:href="#aj" transform="matrix(1,0,0,1,205,1025) translate(18.80555555555557 43)"/><use xlink:href="#ak" transform="matrix(1,0,0,1,205,1025) translate(42.63888888888891 43)"/><use xlink:href="#al" transform="matrix(1,0,0,1,205,1025) translate(115.86111111111114 43)"/><use xlink:href="#am" transform="matrix(1,0,0,1,205,1025) translate(141.41666666666669 43)"/><use xlink:href="#an" transform="matrix(1,0,0,1,205,1025) translate(206.86111111111114 43)"/><use xlink:href="#ao" transform="matrix(1,0,0,1,205,1025) translate(307.8611111111111 43)"/><use xlink:href="#aj" transform="matrix(1,0,0,1,205,1025) translate(46.583333333333314 67)"/><use xlink:href="#ap" transform="matrix(1,0,0,1,205,1025) translate(70.41666666666666 67)"/><use xlink:href="#aq" transform="matrix(1,0,0,1,205,1025) translate(138.08333333333331 67)"/><use xlink:href="#ar" transform="matrix(1,0,0,1,205,1025) translate(246.80555555555554 67)"/><use xlink:href="#aj" transform="matrix(1,0,0,1,205,1025) translate(87.66666666666666 91)"/><use xlink:href="#ap" transform="matrix(1,0,0,1,205,1025) translate(111.5 91)"/><use xlink:href="#as" transform="matrix(1,0,0,1,205,1025) translate(179.16666666666666 91)"/><use xlink:href="#aj" transform="matrix(1,0,0,1,205,1025) translate(21.166666666666657 115)"/><use xlink:href="#at" transform="matrix(1,0,0,1,205,1025) translate(44.99999999999999 115)"/><use xlink:href="#au" transform="matrix(1,0,0,1,205,1025) translate(106.05555555555554 115)"/><use xlink:href="#av" transform="matrix(1,0,0,1,205,1025) translate(216.83333333333334 115)"/><use xlink:href="#aw" transform="matrix(1,0,0,1,205,1025) translate(276.7777777777778 115)"/></g><path d="M860 1040h120.5" stroke="#000" stroke-width="2" fill="none"/><path/><path d="M995.76 1040l-14.26 4.64v-9.28z" stroke="#000" stroke-width="2"/><path d="M681 1040h80.5" stroke="#000" stroke-width="2" fill="none"/><path d="M681 1041h-1v-2h1z"/><path d="M776.76 1040l-14.26 4.64v-9.28z" stroke="#000" stroke-width="2"/><path d="M780 1013.4h80v53.2h-80z" stroke="#000" stroke-opacity="0" stroke-width="2" fill="#fff" fill-opacity="0"/><g><use xlink:href="#ax" transform="matrix(1,0,0,1,785,1018.4) translate(5.024999999999999 25.6)"/></g><path d="M770 1181h-70.5" stroke="#000" stroke-width="2" fill="none"/><path/><path d="M684.24 1181l14.26-4.64v9.28z" stroke="#000" stroke-width="2"/><path d="M999 1181H888.5" stroke="#000" stroke-width="2" fill="none"/><path d="M1000 1182h-1v-2h1z"/><path d="M873.24 1181l14.26-4.64v9.28z" stroke="#000" stroke-width="2"/><path d="M770 1161h100v40H770z" stroke="#000" stroke-opacity="0" stroke-width="2" fill="#fff" fill-opacity="0"/><g><use xlink:href="#ay" transform="matrix(1,0,0,1,775,1166) translate(8.024999999999999 18.6)"/></g><path d="M280 820h240v60H280z" stroke="#000" stroke-opacity="0" stroke-width="2" fill="#fff" fill-opacity="0"/><g><use xlink:href="#az" transform="matrix(1,0,0,1,285,825) translate(33.57499999999999 28.6)"/><use xlink:href="#aA" transform="matrix(1,0,0,1,285,825) translate(103.57499999999999 28.6)"/></g><path d="M400 939v-40.5" stroke="#000" stroke-width="2" fill="none"/><path d="M401 940h-2v-1h2z"/><path d="M400 883.24l4.64 14.26h-9.28z" stroke="#000" stroke-width="2"/><path d="M400 820v-41.5" stroke="#000" stroke-width="2" fill="none"/><path/><path d="M400 763.24l4.64 14.26h-9.28z" stroke="#000" stroke-width="2"/><path d="M720 800h240v80H720z" stroke="#000" stroke-opacity="0" stroke-width="2" fill="#fff" fill-opacity="0"/><g><use xlink:href="#aB" transform="matrix(1,0,0,1,725,805) translate(15.185185185185176 40.333333333333336)"/><use xlink:href="#aC" transform="matrix(1,0,0,1,725,805) translate(118.74074074074075 40.333333333333336)"/></g><defs><path d="M140-251c81 0 123 46 123 126C263-53 228-8 163 1c7 30 30 48 69 40v23c-55 16-95-15-103-61C56-3 17-48 17-125c0-80 42-126 123-126zm0 227c63 0 89-41 89-101s-29-99-89-99c-61 0-89 39-89 99S79-25 140-24" id="aD"/><path d="M0 4l72-265h28L28 4H0" id="aE"/><path d="M205 0l-28-72H64L36 0H1l101-248h38L239 0h-34zm-38-99l-47-123c-12 45-31 82-46 123h93" id="aF"/><g id="a"><use transform="matrix(0.05,0,0,0.05,0,0)" xlink:href="#aD"/><use transform="matrix(0.05,0,0,0.05,14,0)" xlink:href="#aE"/><use transform="matrix(0.05,0,0,0.05,19,0)" xlink:href="#aF"/></g><path d="M30 0v-248h187v28H63v79h144v27H63v87h162V0H30" id="aG"/><path d="M179-190L93 31C79 59 56 82 12 73V49c39 6 53-20 64-50L1-190h34L92-34l54-156h33" id="aH"/><path d="M100-194c63 0 86 42 84 106H49c0 40 14 67 53 68 26 1 43-12 49-29l28 8c-11 28-37 45-77 45C44 4 14-33 15-96c1-61 26-98 85-98zm52 81c6-60-76-77-97-28-3 7-6 17-6 28h103" id="aI"/><g id="b"><use transform="matrix(0.05,0,0,0.05,0,0)" xlink:href="#aG"/><use transform="matrix(0.05,0,0,0.05,12,0)" xlink:href="#aH"/><use transform="matrix(0.05,0,0,0.05,21,0)" xlink:href="#aI"/></g><path d="M240 0l2-218c-23 76-54 145-80 218h-23L58-218 59 0H30v-248h44l77 211c21-75 51-140 76-211h43V0h-30" id="aJ"/><path d="M100-194c62-1 85 37 85 99 1 63-27 99-86 99S16-35 15-95c0-66 28-99 85-99zM99-20c44 1 53-31 53-75 0-43-8-75-51-75s-53 32-53 75 10 74 51 75" id="aK"/><path d="M59-47c-2 24 18 29 38 22v24C64 9 27 4 27-40v-127H5v-23h24l9-43h21v43h35v23H59v120" id="aL"/><path d="M24-231v-30h32v30H24zM24 0v-190h32V0H24" id="aM"/><path d="M117-194c89-4 53 116 60 194h-32v-121c0-31-8-49-39-48C34-167 62-67 57 0H25l-1-190h30c1 10-1 24 2 32 11-22 29-35 61-36" id="aN"/><g id="c"><use transform="matrix(0.05,0,0,0.05,0,0)" xlink:href="#aJ"/><use transform="matrix(0.05,0,0,0.05,14.950000000000001,0)" xlink:href="#aK"/><use transform="matrix(0.05,0,0,0.05,24.950000000000003,0)" xlink:href="#aL"/><use transform="matrix(0.05,0,0,0.05,29.950000000000003,0)" xlink:href="#aM"/><use transform="matrix(0.05,0,0,0.05,33.900000000000006,0)" xlink:href="#aK"/><use transform="matrix(0.05,0,0,0.05,43.900000000000006,0)" xlink:href="#aN"/></g><path d="M85-194c31 0 48 13 60 33l-1-100h32l1 261h-30c-2-10 0-23-3-31C134-8 116 4 85 4 32 4 16-35 15-94c0-66 23-100 70-100zm9 24c-40 0-46 34-46 75 0 40 6 74 45 74 42 0 51-32 51-76 0-42-9-74-50-73" id="aO"/><path d="M24 0v-261h32V0H24" id="aP"/><path d="M87 75C49 33 22-17 22-94c0-76 28-126 65-167h31c-38 41-64 92-64 168S80 34 118 75H87" id="aQ"/><path d="M185-189c-5-48-123-54-124 2 14 75 158 14 163 119 3 78-121 87-175 55-17-10-28-26-33-46l33-7c5 56 141 63 141-1 0-78-155-14-162-118-5-82 145-84 179-34 5 7 8 16 11 25" id="aR"/><path d="M114-163C36-179 61-72 57 0H25l-1-190h30c1 12-1 29 2 39 6-27 23-49 58-41v29" id="aS"/><path d="M96-169c-40 0-48 33-48 73s9 75 48 75c24 0 41-14 43-38l32 2c-6 37-31 61-74 61-59 0-76-41-82-99-10-93 101-131 147-64 4 7 5 14 7 22l-32 3c-4-21-16-35-41-35" id="aT"/><path d="M106-169C34-169 62-67 57 0H25v-261h32l-1 103c12-21 28-36 61-36 89 0 53 116 60 194h-32v-121c2-32-8-49-39-48" id="aU"/><g id="d"><use transform="matrix(0.05,0,0,0.05,0,0)" xlink:href="#aJ"/><use transform="matrix(0.05,0,0,0.05,14.950000000000001,0)" xlink:href="#aK"/><use transform="matrix(0.05,0,0,0.05,24.950000000000003,0)" xlink:href="#aO"/><use transform="matrix(0.05,0,0,0.05,34.95,0)" xlink:href="#aI"/><use transform="matrix(0.05,0,0,0.05,44.95,0)" xlink:href="#aP"/><use transform="matrix(0.05,0,0,0.05,48.900000000000006,0)" xlink:href="#aQ"/><use transform="matrix(0.05,0,0,0.05,54.85,0)" xlink:href="#aR"/><use transform="matrix(0.05,0,0,0.05,66.85000000000001,0)" xlink:href="#aL"/><use transform="matrix(0.05,0,0,0.05,71.85000000000001,0)" xlink:href="#aS"/><use transform="matrix(0.05,0,0,0.05,77.80000000000001,0)" xlink:href="#aI"/><use transform="matrix(0.05,0,0,0.05,87.80000000000001,0)" xlink:href="#aL"/><use transform="matrix(0.05,0,0,0.05,92.80000000000001,0)" xlink:href="#aT"/><use transform="matrix(0.05,0,0,0.05,101.80000000000001,0)" xlink:href="#aU"/></g><path d="M143 4C61 4 22-44 18-125c-5-107 100-154 193-111 17 8 29 25 37 43l-32 9c-13-25-37-40-76-40-61 0-88 39-88 99 0 61 29 100 91 101 35 0 62-11 79-27v-45h-74v-28h105v86C228-13 192 4 143 4" id="aV"/><path d="M141-36C126-15 110 5 73 4 37 3 15-17 15-53c-1-64 63-63 125-63 3-35-9-54-41-54-24 1-41 7-42 31l-33-3c5-37 33-52 76-52 45 0 72 20 72 64v82c-1 20 7 32 28 27v20c-31 9-61-2-59-35zM48-53c0 20 12 33 32 33 41-3 63-29 60-74-43 2-92-5-92 41" id="aW"/><path d="M33-261c38 41 65 92 65 168S71 34 33 75H2C39 34 66-17 66-93S39-220 2-261h31" id="aX"/><g id="e"><use transform="matrix(0.05,0,0,0.05,0,0)" xlink:href="#aV"/><use transform="matrix(0.05,0,0,0.05,14,0)" xlink:href="#aK"/><use transform="matrix(0.05,0,0,0.05,24,0)" xlink:href="#aW"/><use transform="matrix(0.05,0,0,0.05,34,0)" xlink:href="#aP"/><use transform="matrix(0.05,0,0,0.05,37.95,0)" xlink:href="#aX"/></g><path d="M233-177c-1 41-23 64-60 70L243 0h-38l-65-103H63V0H30v-248c88 3 205-21 203 71zM63-129c60-2 137 13 137-47 0-61-80-42-137-45v92" id="aY"/><path d="M206 0h-36l-40-164L89 0H53L-1-190h32L70-26l43-164h34l41 164 42-164h31" id="aZ"/><g id="f"><use transform="matrix(0.05,0,0,0.05,0,0)" xlink:href="#aY"/><use transform="matrix(0.05,0,0,0.05,12.950000000000001,0)" xlink:href="#aI"/><use transform="matrix(0.05,0,0,0.05,22.950000000000003,0)" xlink:href="#aZ"/><use transform="matrix(0.05,0,0,0.05,35.900000000000006,0)" xlink:href="#aW"/><use transform="matrix(0.05,0,0,0.05,45.900000000000006,0)" xlink:href="#aS"/><use transform="matrix(0.05,0,0,0.05,51.85,0)" xlink:href="#aO"/></g><path d="M63-220v92h138v28H63V0H30v-248h175v28H63" id="ba"/><g id="g"><use transform="matrix(0.05,0,0,0.05,0,0)" xlink:href="#ba"/><use transform="matrix(0.05,0,0,0.05,10.950000000000001,0)" xlink:href="#aW"/><use transform="matrix(0.05,0,0,0.05,20.950000000000003,0)" xlink:href="#aT"/><use transform="matrix(0.05,0,0,0.05,29.950000000000003,0)" xlink:href="#aL"/><use transform="matrix(0.05,0,0,0.05,34.95,0)" xlink:href="#aK"/><use transform="matrix(0.05,0,0,0.05,44.95,0)" xlink:href="#aS"/><use transform="matrix(0.05,0,0,0.05,50.900000000000006,0)" xlink:href="#aH"/></g><path d="M115-194c53 0 69 39 70 98 0 66-23 100-70 100C84 3 66-7 56-30L54 0H23l1-261h32v101c10-23 28-34 59-34zm-8 174c40 0 45-34 45-75 0-40-5-75-45-74-42 0-51 32-51 76 0 43 10 73 51 73" id="bb"/><path d="M135-143c-3-34-86-38-87 0 15 53 115 12 119 90S17 21 10-45l28-5c4 36 97 45 98 0-10-56-113-15-118-90-4-57 82-63 122-42 12 7 21 19 24 35" id="bc"/><g id="h"><use transform="matrix(0.05,0,0,0.05,0,0)" xlink:href="#aF"/><use transform="matrix(0.05,0,0,0.05,12,0)" xlink:href="#bb"/><use transform="matrix(0.05,0,0,0.05,22,0)" xlink:href="#bc"/><use transform="matrix(0.05,0,0,0.05,31,0)" xlink:href="#aL"/><use transform="matrix(0.05,0,0,0.05,36,0)" xlink:href="#aS"/><use transform="matrix(0.05,0,0,0.05,41.95,0)" xlink:href="#aW"/><use transform="matrix(0.05,0,0,0.05,51.95,0)" xlink:href="#aT"/><use transform="matrix(0.05,0,0,0.05,60.95,0)" xlink:href="#aL"/><use transform="matrix(0.05,0,0,0.05,65.95,0)" xlink:href="#aI"/><use transform="matrix(0.05,0,0,0.05,75.95,0)" xlink:href="#aO"/></g><path d="M210-169c-67 3-38 105-44 169h-31v-121c0-29-5-50-35-48C34-165 62-65 56 0H25l-1-190h30c1 10-1 24 2 32 10-44 99-50 107 0 11-21 27-35 58-36 85-2 47 119 55 194h-31v-121c0-29-5-49-35-48" id="bd"/><g id="i"><use transform="matrix(0.05,0,0,0.05,0,0)" xlink:href="#aR"/><use transform="matrix(0.05,0,0,0.05,12,0)" xlink:href="#aH"/><use transform="matrix(0.05,0,0,0.05,21,0)" xlink:href="#bc"/><use transform="matrix(0.05,0,0,0.05,30,0)" xlink:href="#aL"/><use transform="matrix(0.05,0,0,0.05,35,0)" xlink:href="#aI"/><use transform="matrix(0.05,0,0,0.05,45,0)" xlink:href="#bd"/></g><path d="M160-131c35 5 61 23 61 61C221 17 115-2 30 0v-248c76 3 177-17 177 60 0 33-19 50-47 57zm-97-11c50-1 110 9 110-42 0-47-63-36-110-37v79zm0 115c55-2 124 14 124-45 0-56-70-42-124-44v89" id="be"/><path d="M143 0L79-87 56-68V0H24v-261h32v163l83-92h37l-77 82L181 0h-38" id="bf"/><g id="j"><use transform="matrix(0.05,0,0,0.05,0,0)" xlink:href="#be"/><use transform="matrix(0.05,0,0,0.05,12,0)" xlink:href="#aP"/><use transform="matrix(0.05,0,0,0.05,15.949999999999998,0)" xlink:href="#aK"/><use transform="matrix(0.05,0,0,0.05,25.950000000000003,0)" xlink:href="#aT"/><use transform="matrix(0.05,0,0,0.05,34.95,0)" xlink:href="#bf"/></g><path d="M30-248c118-7 216 8 213 122C240-48 200 0 122 0H30v-248zM63-27c89 8 146-16 146-99s-60-101-146-95v194" id="bg"/><path d="M177-190C167-65 218 103 67 71c-23-6-38-20-44-43l32-5c15 47 100 32 89-28v-30C133-14 115 1 83 1 29 1 15-40 15-95c0-56 16-97 71-98 29-1 48 16 59 35 1-10 0-23 2-32h30zM94-22c36 0 50-32 50-73 0-42-14-75-50-75-39 0-46 34-46 75s6 73 46 73" id="bh"/><g id="k"><use transform="matrix(0.05,0,0,0.05,0,0)" xlink:href="#bg"/><use transform="matrix(0.05,0,0,0.05,12.950000000000001,0)" xlink:href="#aM"/><use transform="matrix(0.05,0,0,0.05,16.900000000000002,0)" xlink:href="#aW"/><use transform="matrix(0.05,0,0,0.05,26.900000000000002,0)" xlink:href="#bh"/><use transform="matrix(0.05,0,0,0.05,36.900000000000006,0)" xlink:href="#aS"/><use transform="matrix(0.05,0,0,0.05,42.85000000000001,0)" xlink:href="#aW"/><use transform="matrix(0.05,0,0,0.05,52.85,0)" xlink:href="#bd"/></g><path d="M140-251c80 0 125 45 125 126S219 4 139 4C58 4 15-44 15-125s44-126 125-126zm-1 214c52 0 73-35 73-88 0-50-21-86-72-86-52 0-73 35-73 86s22 88 72 88" id="bi"/><path d="M135-194c52 0 70 43 70 98 0 56-19 99-73 100-30 1-46-15-58-35L72 0H24l1-261h50v104c11-23 29-37 60-37zM114-30c31 0 40-27 40-66 0-37-7-63-39-63s-41 28-41 65c0 36 8 64 40 64" id="bj"/><path d="M137-138c1-29-70-34-71-4 15 46 118 7 119 86 1 83-164 76-172 9l43-7c4 19 20 25 44 25 33 8 57-30 24-41C81-84 22-81 20-136c-2-80 154-74 161-7" id="bk"/><path d="M185-48c-13 30-37 53-82 52C43 2 14-33 14-96s30-98 90-98c62 0 83 45 84 108H66c0 31 8 55 39 56 18 0 30-7 34-22zm-45-69c5-46-57-63-70-21-2 6-4 13-4 21h74" id="bl"/><path d="M135-150c-39-12-60 13-60 57V0H25l-1-190h47c2 13-1 29 3 40 6-28 27-53 61-41v41" id="bm"/><path d="M128 0H69L1-190h53L99-40l48-150h52" id="bn"/><path d="M133-34C117-15 103 5 69 4 32 3 11-16 11-54c-1-60 55-63 116-61 1-26-3-47-28-47-18 1-26 9-28 27l-52-2c7-38 36-58 82-57s74 22 75 68l1 82c-1 14 12 18 25 15v27c-30 8-71 5-69-32zm-48 3c29 0 43-24 42-57-32 0-66-3-65 30 0 17 8 27 23 27" id="bo"/><path d="M115-3C79 11 28 4 28-45v-112H4v-33h27l15-45h31v45h36v33H77v99c-1 23 16 31 38 25v30" id="bp"/><path d="M25-224v-37h50v37H25zM25 0v-190h50V0H25" id="bq"/><path d="M110-194c64 0 96 36 96 99 0 64-35 99-97 99-61 0-95-36-95-99 0-62 34-99 96-99zm-1 164c35 0 45-28 45-65 0-40-10-65-43-65-34 0-45 26-45 65 0 36 10 65 43 65" id="br"/><path d="M135-194c87-1 58 113 63 194h-50c-7-57 23-157-34-157-59 0-34 97-39 157H25l-1-190h47c2 12-1 28 3 38 12-26 28-41 61-42" id="bs"/><g id="l"><use transform="matrix(0.05,0,0,0.05,0,0)" xlink:href="#bi"/><use transform="matrix(0.05,0,0,0.05,14,0)" xlink:href="#bj"/><use transform="matrix(0.05,0,0,0.05,24.950000000000003,0)" xlink:href="#bk"/><use transform="matrix(0.05,0,0,0.05,34.95,0)" xlink:href="#bl"/><use transform="matrix(0.05,0,0,0.05,44.95,0)" xlink:href="#bm"/><use transform="matrix(0.05,0,0,0.05,51.95,0)" xlink:href="#bn"/><use transform="matrix(0.05,0,0,0.05,61.95,0)" xlink:href="#bo"/><use transform="matrix(0.05,0,0,0.05,71.95,0)" xlink:href="#bp"/><use transform="matrix(0.05,0,0,0.05,77.9,0)" xlink:href="#bq"/><use transform="matrix(0.05,0,0,0.05,82.9,0)" xlink:href="#br"/><use transform="matrix(0.05,0,0,0.05,93.85000000000001,0)" xlink:href="#bs"/></g><path d="M24-248c93 1 206-16 204 79-1 75-69 88-152 82V0H24v-248zm52 121c47 0 100 7 100-41 0-47-54-39-100-39v80" id="bt"/><path d="M190-63c-7 42-38 67-86 67-59 0-84-38-90-98-12-110 154-137 174-36l-49 2c-2-19-15-32-35-32-30 0-35 28-38 64-6 74 65 87 74 30" id="bu"/><path d="M195-6C206 82 75 100 31 46c-4-6-6-13-8-21l49-6c3 16 16 24 34 25 40 0 42-37 40-79-11 22-30 35-61 35-53 0-70-43-70-97 0-56 18-96 73-97 30 0 46 14 59 34l2-30h47zm-90-29c32 0 41-27 41-63 0-35-9-62-40-62-32 0-39 29-40 63 0 36 9 62 39 62" id="bv"/><g id="m"><use transform="matrix(0.05,0,0,0.05,0,0)" xlink:href="#bt"/><use transform="matrix(0.05,0,0,0.05,12,0)" xlink:href="#bm"/><use transform="matrix(0.05,0,0,0.05,19,0)" xlink:href="#br"/><use transform="matrix(0.05,0,0,0.05,29.950000000000003,0)" xlink:href="#bu"/><use transform="matrix(0.05,0,0,0.05,39.95,0)" xlink:href="#bl"/><use transform="matrix(0.05,0,0,0.05,49.95,0)" xlink:href="#bk"/><use transform="matrix(0.05,0,0,0.05,59.95,0)" xlink:href="#bk"/><use transform="matrix(0.05,0,0,0.05,69.95,0)" xlink:href="#bq"/><use transform="matrix(0.05,0,0,0.05,74.95,0)" xlink:href="#bs"/><use transform="matrix(0.05,0,0,0.05,85.9,0)" xlink:href="#bv"/></g><path d="M238-95c0 69-44 99-111 99C63 4 22-25 22-93v-155h51v151c-1 38 19 59 55 60 90 1 49-130 58-211h52v153" id="bw"/><g id="n"><use transform="matrix(0.05,0,0,0.05,0,0)" xlink:href="#bw"/><use transform="matrix(0.05,0,0,0.05,12.950000000000001,0)" xlink:href="#bs"/><use transform="matrix(0.05,0,0,0.05,23.900000000000002,0)" xlink:href="#bq"/><use transform="matrix(0.05,0,0,0.05,28.900000000000002,0)" xlink:href="#bp"/></g><path d="M27 0v-27h64v-190l-56 39v-29l58-41h29v221h61V0H27" id="bx"/><g id="o"><use transform="matrix(0.05,0,0,0.05,0,0)" xlink:href="#bx"/><use transform="matrix(0.05,0,0,0.05,10,0)" xlink:href="#aX"/></g><g id="p"><use transform="matrix(0.05,0,0,0.05,0,0)" xlink:href="#aG"/><use transform="matrix(0.05,0,0,0.05,12,0)" xlink:href="#bc"/><use transform="matrix(0.05,0,0,0.05,21,0)" xlink:href="#aL"/><use transform="matrix(0.05,0,0,0.05,26,0)" xlink:href="#aM"/><use transform="matrix(0.05,0,0,0.05,29.950000000000003,0)" xlink:href="#bd"/><use transform="matrix(0.05,0,0,0.05,44.9,0)" xlink:href="#aW"/><use transform="matrix(0.05,0,0,0.05,54.900000000000006,0)" xlink:href="#aL"/><use transform="matrix(0.05,0,0,0.05,59.900000000000006,0)" xlink:href="#aI"/></g><path d="M84 4C-5 8 30-112 23-190h32v120c0 31 7 50 39 49 72-2 45-101 50-169h31l1 190h-30c-1-10 1-25-2-33-11 22-28 36-60 37" id="by"/><path d="M47-170H22l-4-78h33" id="bz"/><g id="q"><use transform="matrix(0.05,0,0,0.05,0,0)" xlink:href="#aU"/><use transform="matrix(0.05,0,0,0.05,10,0)" xlink:href="#by"/><use transform="matrix(0.05,0,0,0.05,20,0)" xlink:href="#bd"/><use transform="matrix(0.05,0,0,0.05,34.95,0)" xlink:href="#aW"/><use transform="matrix(0.05,0,0,0.05,44.95,0)" xlink:href="#aN"/><use transform="matrix(0.05,0,0,0.05,54.95,0)" xlink:href="#bz"/><use transform="matrix(0.05,0,0,0.05,58.35,0)" xlink:href="#bc"/></g><path d="M108 0H70L1-190h34L89-25l56-165h34" id="bA"/><g id="r"><use transform="matrix(0.05,0,0,0.05,0,0)" xlink:href="#bd"/><use transform="matrix(0.05,0,0,0.05,14.950000000000001,0)" xlink:href="#aK"/><use transform="matrix(0.05,0,0,0.05,24.950000000000003,0)" xlink:href="#aL"/><use transform="matrix(0.05,0,0,0.05,29.950000000000003,0)" xlink:href="#aM"/><use transform="matrix(0.05,0,0,0.05,33.900000000000006,0)" xlink:href="#bA"/><use transform="matrix(0.05,0,0,0.05,42.900000000000006,0)" xlink:href="#aW"/><use transform="matrix(0.05,0,0,0.05,52.900000000000006,0)" xlink:href="#aL"/><use transform="matrix(0.05,0,0,0.05,57.900000000000006,0)" xlink:href="#aM"/><use transform="matrix(0.05,0,0,0.05,61.85,0)" xlink:href="#aK"/><use transform="matrix(0.05,0,0,0.05,71.85000000000001,0)" xlink:href="#aN"/></g><g id="s"><use transform="matrix(0.05,0,0,0.05,0,0)" xlink:href="#aP"/><use transform="matrix(0.05,0,0,0.05,3.95,0)" xlink:href="#aI"/><use transform="matrix(0.05,0,0,0.05,13.949999999999998,0)" xlink:href="#bA"/><use transform="matrix(0.05,0,0,0.05,22.95,0)" xlink:href="#aI"/><use transform="matrix(0.05,0,0,0.05,32.95,0)" xlink:href="#aP"/></g><path d="M16-82v-28h88v28H16" id="bB"/><path d="M18-27v-27l151-64-151-65v-27l175 74v36" id="bC"/><g id="t"><use transform="matrix(0.05,0,0,0.05,0,0)" xlink:href="#bB"/><use transform="matrix(0.05,0,0,0.05,5.95,0)" xlink:href="#bC"/></g><path d="M115-194c55 1 70 41 70 98S169 2 115 4C84 4 66-9 55-30l1 105H24l-1-265h31l2 30c10-21 28-34 59-34zm-8 174c40 0 45-34 45-75s-6-73-45-74c-42 0-51 32-51 76 0 43 10 73 51 73" id="bD"/><g id="u"><use transform="matrix(0.05,0,0,0.05,0,0)" xlink:href="#by"/><use transform="matrix(0.05,0,0,0.05,10,0)" xlink:href="#bD"/><use transform="matrix(0.05,0,0,0.05,20,0)" xlink:href="#aO"/><use transform="matrix(0.05,0,0,0.05,30,0)" xlink:href="#aW"/><use transform="matrix(0.05,0,0,0.05,40,0)" xlink:href="#aL"/><use transform="matrix(0.05,0,0,0.05,45,0)" xlink:href="#aI"/></g><path d="M30-248c87 1 191-15 191 75 0 78-77 80-158 76V0H30v-248zm33 125c57 0 124 11 124-50 0-59-68-47-124-48v98" id="bE"/><path d="M140-251c81 0 123 46 123 126C263-46 219 4 140 4 59 4 17-45 17-125s42-126 123-126zm0 227c63 0 89-41 89-101s-29-99-89-99c-61 0-89 39-89 99S79-25 140-24" id="bF"/><g id="v"><use transform="matrix(0.05,0,0,0.05,0,0)" xlink:href="#bE"/><use transform="matrix(0.05,0,0,0.05,12,0)" xlink:href="#bF"/><use transform="matrix(0.05,0,0,0.05,26,0)" xlink:href="#aJ"/><use transform="matrix(0.05,0,0,0.05,40.95,0)" xlink:href="#bg"/><use transform="matrix(0.05,0,0,0.05,53.900000000000006,0)" xlink:href="#bE"/></g><path d="M101-251c82-7 93 87 43 132L82-64C71-53 59-42 53-27h129V0H18c2-99 128-94 128-182 0-28-16-43-45-43s-46 15-49 41l-32-3c6-41 34-60 81-64" id="bG"/><g id="w"><use transform="matrix(0.05,0,0,0.05,0,0)" xlink:href="#bG"/><use transform="matrix(0.05,0,0,0.05,10,0)" xlink:href="#aX"/></g><path d="M212-179c-10-28-35-45-73-45-59 0-87 40-87 99 0 60 29 101 89 101 43 0 62-24 78-52l27 14C228-24 195 4 139 4 59 4 22-46 18-125c-6-104 99-153 187-111 19 9 31 26 39 46" id="bH"/><g id="x"><use transform="matrix(0.05,0,0,0.05,0,0)" xlink:href="#bH"/><use transform="matrix(0.05,0,0,0.05,12.950000000000001,0)" xlink:href="#aK"/><use transform="matrix(0.05,0,0,0.05,22.950000000000003,0)" xlink:href="#bd"/><use transform="matrix(0.05,0,0,0.05,37.900000000000006,0)" xlink:href="#bD"/><use transform="matrix(0.05,0,0,0.05,47.900000000000006,0)" xlink:href="#by"/><use transform="matrix(0.05,0,0,0.05,57.900000000000006,0)" xlink:href="#aL"/><use transform="matrix(0.05,0,0,0.05,62.900000000000006,0)" xlink:href="#aI"/></g><g id="y"><use transform="matrix(0.05,0,0,0.05,0,0)" xlink:href="#aL"/><use transform="matrix(0.05,0,0,0.05,5,0)" xlink:href="#aU"/><use transform="matrix(0.05,0,0,0.05,15,0)" xlink:href="#aI"/></g><g id="z"><use transform="matrix(0.05,0,0,0.05,0,0)" xlink:href="#aP"/><use transform="matrix(0.05,0,0,0.05,3.95,0)" xlink:href="#aM"/><use transform="matrix(0.05,0,0,0.05,7.9,0)" xlink:href="#bf"/><use transform="matrix(0.05,0,0,0.05,16.9,0)" xlink:href="#aI"/><use transform="matrix(0.05,0,0,0.05,26.899999999999995,0)" xlink:href="#aP"/><use transform="matrix(0.05,0,0,0.05,30.849999999999994,0)" xlink:href="#aM"/><use transform="matrix(0.05,0,0,0.05,34.8,0)" xlink:href="#aU"/><use transform="matrix(0.05,0,0,0.05,44.8,0)" xlink:href="#aK"/><use transform="matrix(0.05,0,0,0.05,54.79999999999999,0)" xlink:href="#aK"/><use transform="matrix(0.05,0,0,0.05,64.8,0)" xlink:href="#aO"/></g><path d="M101-234c-31-9-42 10-38 44h38v23H63V0H32v-167H5v-23h27c-7-52 17-82 69-68v24" id="bI"/><g id="A"><use transform="matrix(0.05,0,0,0.05,0,0)" xlink:href="#aK"/><use transform="matrix(0.05,0,0,0.05,10,0)" xlink:href="#bI"/></g><g id="B"><use transform="matrix(0.05,0,0,0.05,0,0)" xlink:href="#aZ"/><use transform="matrix(0.05,0,0,0.05,12.950000000000001,0)" xlink:href="#aU"/><use transform="matrix(0.05,0,0,0.05,22.950000000000003,0)" xlink:href="#aW"/><use transform="matrix(0.05,0,0,0.05,32.95,0)" xlink:href="#aL"/><use transform="matrix(0.05,0,0,0.05,37.95,0)" xlink:href="#bz"/><use transform="matrix(0.05,0,0,0.05,41.35,0)" xlink:href="#bc"/></g><g id="C"><use transform="matrix(0.05,0,0,0.05,0,0)" xlink:href="#bh"/><use transform="matrix(0.05,0,0,0.05,10,0)" xlink:href="#aK"/><use transform="matrix(0.05,0,0,0.05,20,0)" xlink:href="#aM"/><use transform="matrix(0.05,0,0,0.05,23.95,0)" xlink:href="#aN"/><use transform="matrix(0.05,0,0,0.05,33.95,0)" xlink:href="#bh"/></g><g id="D"><use transform="matrix(0.05,0,0,0.05,0,0)" xlink:href="#aK"/><use transform="matrix(0.05,0,0,0.05,10,0)" xlink:href="#aN"/></g><g id="E"><use transform="matrix(0.05,0,0,0.05,0,0)" xlink:href="#aZ"/><use transform="matrix(0.05,0,0,0.05,12.950000000000001,0)" xlink:href="#aM"/><use transform="matrix(0.05,0,0,0.05,16.900000000000002,0)" xlink:href="#aL"/><use transform="matrix(0.05,0,0,0.05,21.900000000000002,0)" xlink:href="#aU"/></g><g id="F"><use transform="matrix(0.05,0,0,0.05,0,0)" xlink:href="#aS"/><use transform="matrix(0.05,0,0,0.05,5.95,0)" xlink:href="#aI"/><use transform="matrix(0.05,0,0,0.05,15.949999999999998,0)" xlink:href="#aZ"/><use transform="matrix(0.05,0,0,0.05,28.899999999999995,0)" xlink:href="#aW"/><use transform="matrix(0.05,0,0,0.05,38.9,0)" xlink:href="#aS"/><use transform="matrix(0.05,0,0,0.05,44.85,0)" xlink:href="#aO"/></g><g id="G"><use transform="matrix(0.05,0,0,0.05,0,0)" xlink:href="#bc"/><use transform="matrix(0.05,0,0,0.05,9,0)" xlink:href="#aW"/><use transform="matrix(0.05,0,0,0.05,19,0)" xlink:href="#aP"/><use transform="matrix(0.05,0,0,0.05,22.95,0)" xlink:href="#aM"/><use transform="matrix(0.05,0,0,0.05,26.899999999999995,0)" xlink:href="#aI"/><use transform="matrix(0.05,0,0,0.05,36.9,0)" xlink:href="#aN"/><use transform="matrix(0.05,0,0,0.05,46.9,0)" xlink:href="#aT"/><use transform="matrix(0.05,0,0,0.05,55.900000000000006,0)" xlink:href="#aH"/></g><path d="M88-194c31-1 46 15 58 34l-1-101h50l1 261h-48c-2-10 0-23-3-31C134-8 116 4 84 4 32 4 16-41 15-95c0-56 19-97 73-99zm17 164c33 0 40-30 41-66 1-37-9-64-41-64s-38 30-39 65c0 43 13 65 39 65" id="bJ"/><g id="H"><use transform="matrix(0.05,0,0,0.05,0,0)" xlink:href="#bt"/><use transform="matrix(0.05,0,0,0.05,12,0)" xlink:href="#bl"/><use transform="matrix(0.05,0,0,0.05,22,0)" xlink:href="#bm"/><use transform="matrix(0.05,0,0,0.05,29,0)" xlink:href="#bu"/><use transform="matrix(0.05,0,0,0.05,39,0)" xlink:href="#bl"/><use transform="matrix(0.05,0,0,0.05,49,0)" xlink:href="#bq"/><use transform="matrix(0.05,0,0,0.05,54,0)" xlink:href="#bn"/><use transform="matrix(0.05,0,0,0.05,64,0)" xlink:href="#bl"/><use transform="matrix(0.05,0,0,0.05,74,0)" xlink:href="#bJ"/></g><path d="M114-157C55-157 80-60 75 0H25v-261h50l-1 109c12-26 28-41 61-42 86-1 58 113 63 194h-50c-7-57 23-157-34-157" id="bK"/><path d="M85 4C-2 5 27-109 22-190h50c7 57-23 150 33 157 60-5 35-97 40-157h50l1 190h-47c-2-12 1-28-3-38-12 25-28 42-61 42" id="bL"/><path d="M220-157c-53 9-28 100-34 157h-49v-107c1-27-5-49-29-50C55-147 81-57 75 0H25l-1-190h47c2 12-1 28 3 38 10-53 101-56 108 0 13-22 24-43 59-42 82 1 51 116 57 194h-49v-107c-1-25-5-48-29-50" id="bM"/><g id="I"><use transform="matrix(0.05,0,0,0.05,0,0)" xlink:href="#bK"/><use transform="matrix(0.05,0,0,0.05,10.950000000000001,0)" xlink:href="#bL"/><use transform="matrix(0.05,0,0,0.05,21.900000000000002,0)" xlink:href="#bM"/><use transform="matrix(0.05,0,0,0.05,37.900000000000006,0)" xlink:href="#bo"/><use transform="matrix(0.05,0,0,0.05,47.900000000000006,0)" xlink:href="#bs"/></g><path d="M25 0v-261h50V0H25" id="bN"/><g id="J"><use transform="matrix(0.05,0,0,0.05,0,0)" xlink:href="#bM"/><use transform="matrix(0.05,0,0,0.05,16,0)" xlink:href="#br"/><use transform="matrix(0.05,0,0,0.05,26.950000000000003,0)" xlink:href="#bJ"/><use transform="matrix(0.05,0,0,0.05,37.900000000000006,0)" xlink:href="#bl"/><use transform="matrix(0.05,0,0,0.05,47.900000000000006,0)" xlink:href="#bN"/></g><g id="K"><use transform="matrix(0.05,0,0,0.05,0,0)" xlink:href="#by"/><use transform="matrix(0.05,0,0,0.05,10,0)" xlink:href="#bD"/><use transform="matrix(0.05,0,0,0.05,20,0)" xlink:href="#aO"/><use transform="matrix(0.05,0,0,0.05,30,0)" xlink:href="#aW"/><use transform="matrix(0.05,0,0,0.05,40,0)" xlink:href="#aL"/><use transform="matrix(0.05,0,0,0.05,45,0)" xlink:href="#aI"/></g><g id="L"><use transform="matrix(0.05,0,0,0.05,0,0)" xlink:href="#bD"/><use transform="matrix(0.05,0,0,0.05,10,0)" xlink:href="#aW"/><use transform="matrix(0.05,0,0,0.05,20,0)" xlink:href="#aS"/><use transform="matrix(0.05,0,0,0.05,25.950000000000003,0)" xlink:href="#aW"/><use transform="matrix(0.05,0,0,0.05,35.95,0)" xlink:href="#bd"/><use transform="matrix(0.05,0,0,0.05,50.900000000000006,0)" xlink:href="#aI"/><use transform="matrix(0.05,0,0,0.05,60.900000000000006,0)" xlink:href="#aL"/><use transform="matrix(0.05,0,0,0.05,65.9,0)" xlink:href="#aI"/><use transform="matrix(0.05,0,0,0.05,75.9,0)" xlink:href="#aS"/><use transform="matrix(0.05,0,0,0.05,81.85000000000001,0)" xlink:href="#bc"/></g><path d="M33 0v-248h34V0H33" id="bO"/><g id="M"><use transform="matrix(0.05,0,0,0.05,0,0)" xlink:href="#bO"/><use transform="matrix(0.05,0,0,0.05,5,0)" xlink:href="#aN"/><use transform="matrix(0.05,0,0,0.05,15,0)" xlink:href="#aL"/><use transform="matrix(0.05,0,0,0.05,20,0)" xlink:href="#aI"/><use transform="matrix(0.05,0,0,0.05,30,0)" xlink:href="#aS"/><use transform="matrix(0.05,0,0,0.05,35.95,0)" xlink:href="#bA"/><use transform="matrix(0.05,0,0,0.05,44.95,0)" xlink:href="#aI"/><use transform="matrix(0.05,0,0,0.05,54.95,0)" xlink:href="#aN"/><use transform="matrix(0.05,0,0,0.05,64.95,0)" xlink:href="#aL"/><use transform="matrix(0.05,0,0,0.05,69.95,0)" xlink:href="#aM"/><use transform="matrix(0.05,0,0,0.05,73.9,0)" xlink:href="#aK"/><use transform="matrix(0.05,0,0,0.05,83.9,0)" xlink:href="#aN"/></g><path d="M32 76v-337h29V76H32" id="bP"/><use transform="matrix(0.05,0,0,0.05,0,0)" xlink:href="#bP" id="N"/><g id="O"><use transform="matrix(0.05,0,0,0.05,0,0)" xlink:href="#bH"/><use transform="matrix(0.05,0,0,0.05,12.950000000000001,0)" xlink:href="#aW"/><use transform="matrix(0.05,0,0,0.05,22.950000000000003,0)" xlink:href="#aL"/><use transform="matrix(0.05,0,0,0.05,27.950000000000003,0)" xlink:href="#aI"/><use transform="matrix(0.05,0,0,0.05,37.95,0)" xlink:href="#bh"/><use transform="matrix(0.05,0,0,0.05,47.95,0)" xlink:href="#aK"/><use transform="matrix(0.05,0,0,0.05,57.95,0)" xlink:href="#aS"/><use transform="matrix(0.05,0,0,0.05,63.900000000000006,0)" xlink:href="#aH"/></g><g id="P"><use transform="matrix(0.05,0,0,0.05,0,0)" xlink:href="#aG"/><use transform="matrix(0.05,0,0,0.05,12,0)" xlink:href="#bI"/><use transform="matrix(0.05,0,0,0.05,16.65,0)" xlink:href="#bI"/><use transform="matrix(0.05,0,0,0.05,21.65,0)" xlink:href="#aI"/><use transform="matrix(0.05,0,0,0.05,31.649999999999995,0)" xlink:href="#aT"/><use transform="matrix(0.05,0,0,0.05,40.65,0)" xlink:href="#aL"/><use transform="matrix(0.05,0,0,0.05,45.65,0)" xlink:href="#aM"/><use transform="matrix(0.05,0,0,0.05,49.6,0)" xlink:href="#bA"/><use transform="matrix(0.05,0,0,0.05,58.6,0)" xlink:href="#aI"/><use transform="matrix(0.05,0,0,0.05,68.6,0)" xlink:href="#aN"/><use transform="matrix(0.05,0,0,0.05,78.6,0)" xlink:href="#aI"/><use transform="matrix(0.05,0,0,0.05,88.6,0)" xlink:href="#bc"/><use transform="matrix(0.05,0,0,0.05,97.6,0)" xlink:href="#bc"/></g><g id="Q"><use transform="matrix(0.05,0,0,0.05,0,0)" xlink:href="#bA"/><use transform="matrix(0.05,0,0,0.05,9,0)" xlink:href="#aW"/><use transform="matrix(0.05,0,0,0.05,19,0)" xlink:href="#aP"/></g><path d="M153-248C145-148 188 4 80 4 36 3 13-21 6-62l32-5c4 25 16 42 43 43 27 0 39-20 39-49v-147H72v-28h81" id="bQ"/><g id="R"><use transform="matrix(0.05,0,0,0.05,0,0)" xlink:href="#bQ"/><use transform="matrix(0.05,0,0,0.05,9,0)" xlink:href="#aK"/><use transform="matrix(0.05,0,0,0.05,19,0)" xlink:href="#bf"/><use transform="matrix(0.05,0,0,0.05,28,0)" xlink:href="#aI"/></g><g id="S"><use transform="matrix(0.05,0,0,0.05,0,0)" xlink:href="#aF"/><use transform="matrix(0.05,0,0,0.05,12,0)" xlink:href="#aS"/><use transform="matrix(0.05,0,0,0.05,17.95,0)" xlink:href="#bb"/></g><path d="M64 0c3-98 48-159 88-221H18v-27h164v26C143-157 98-101 97 0H64" id="bR"/><path d="M33 0v-38h34V0H33" id="bS"/><path d="M54-142c48-35 137-8 131 61C196 18 31 33 14-55l32-4c7 23 22 37 52 37 35-1 51-22 54-58 4-55-73-65-99-34H22l8-134h141v27H59" id="bT"/><g id="T"><use transform="matrix(0.05,0,0,0.05,0,0)" xlink:href="#bR"/><use transform="matrix(0.05,0,0,0.05,10,0)" xlink:href="#bS"/><use transform="matrix(0.05,0,0,0.05,15,0)" xlink:href="#bT"/></g><g id="U"><use transform="matrix(0.05,0,0,0.05,0,0)" xlink:href="#aY"/><use transform="matrix(0.05,0,0,0.05,12.950000000000001,0)" xlink:href="#aI"/><use transform="matrix(0.05,0,0,0.05,22.950000000000003,0)" xlink:href="#bd"/><use transform="matrix(0.05,0,0,0.05,37.900000000000006,0)" xlink:href="#aM"/><use transform="matrix(0.05,0,0,0.05,41.85000000000001,0)" xlink:href="#aN"/><use transform="matrix(0.05,0,0,0.05,51.85,0)" xlink:href="#aO"/></g><g id="V"><use transform="matrix(0.05,0,0,0.05,0,0)" xlink:href="#bh"/><use transform="matrix(0.05,0,0,0.05,10,0)" xlink:href="#aK"/><use transform="matrix(0.05,0,0,0.05,20,0)" xlink:href="#aW"/><use transform="matrix(0.05,0,0,0.05,30,0)" xlink:href="#aP"/></g><g id="W"><use transform="matrix(0.05,0,0,0.05,0,0)" xlink:href="#aR"/><use transform="matrix(0.05,0,0,0.05,12,0)" xlink:href="#bD"/><use transform="matrix(0.05,0,0,0.05,22,0)" xlink:href="#aI"/><use transform="matrix(0.05,0,0,0.05,32,0)" xlink:href="#aT"/></g><path d="M110-160c48 1 74 30 74 79 0 53-28 85-80 85-65 0-83-55-86-122-5-90 50-162 133-122 14 7 22 21 27 39l-31 6c-5-40-67-38-82-6-9 19-15 44-15 74 11-20 30-34 60-33zm-7 138c34 0 49-23 49-58s-16-56-50-56c-29 0-50 16-49 49 1 36 15 65 50 65" id="bU"/><use transform="matrix(0.05,0,0,0.05,0,0)" xlink:href="#bU" id="X"/><path d="M126-127c33 6 58 20 58 59 0 88-139 92-164 29-3-8-5-16-6-25l32-3c6 27 21 44 54 44 32 0 52-15 52-46 0-38-36-46-79-43v-28c39 1 72-4 72-42 0-27-17-43-46-43-28 0-47 15-49 41l-32-3c6-42 35-63 81-64 48-1 79 21 79 65 0 36-21 52-52 59" id="bV"/><g id="Y"><use transform="matrix(0.05,0,0,0.05,0,0)" xlink:href="#bV"/><use transform="matrix(0.05,0,0,0.05,10,0)" xlink:href="#aX"/></g><g id="Z"><use transform="matrix(0.05,0,0,0.05,0,0)" xlink:href="#bE"/><use transform="matrix(0.05,0,0,0.05,12,0)" xlink:href="#aP"/><use transform="matrix(0.05,0,0,0.05,15.949999999999998,0)" xlink:href="#aW"/><use transform="matrix(0.05,0,0,0.05,25.950000000000003,0)" xlink:href="#aH"/></g><g id="aa"><use transform="matrix(0.05,0,0,0.05,0,0)" xlink:href="#bd"/><use transform="matrix(0.05,0,0,0.05,14.950000000000001,0)" xlink:href="#by"/><use transform="matrix(0.05,0,0,0.05,24.950000000000003,0)" xlink:href="#bc"/><use transform="matrix(0.05,0,0,0.05,33.95,0)" xlink:href="#aM"/><use transform="matrix(0.05,0,0,0.05,37.900000000000006,0)" xlink:href="#aT"/></g><path d="M155-56V0h-30v-56H8v-25l114-167h33v167h35v25h-35zm-30-156c-27 46-58 90-88 131h88v-131" id="bW"/><g id="ab"><use transform="matrix(0.05,0,0,0.05,0,0)" xlink:href="#bW"/><use transform="matrix(0.05,0,0,0.05,10,0)" xlink:href="#bS"/><use transform="matrix(0.05,0,0,0.05,15,0)" xlink:href="#bT"/></g><g id="ac"><use transform="matrix(0.05,0,0,0.05,0,0)" xlink:href="#aM"/><use transform="matrix(0.05,0,0,0.05,3.95,0)" xlink:href="#aN"/><use transform="matrix(0.05,0,0,0.05,13.949999999999998,0)" xlink:href="#aL"/><use transform="matrix(0.05,0,0,0.05,18.95,0)" xlink:href="#aI"/><use transform="matrix(0.05,0,0,0.05,28.950000000000003,0)" xlink:href="#aS"/><use transform="matrix(0.05,0,0,0.05,34.9,0)" xlink:href="#bA"/><use transform="matrix(0.05,0,0,0.05,43.9,0)" xlink:href="#aI"/><use transform="matrix(0.05,0,0,0.05,53.900000000000006,0)" xlink:href="#aN"/><use transform="matrix(0.05,0,0,0.05,63.900000000000006,0)" xlink:href="#aL"/><use transform="matrix(0.05,0,0,0.05,68.9,0)" xlink:href="#aM"/><use transform="matrix(0.05,0,0,0.05,72.85000000000001,0)" xlink:href="#aK"/><use transform="matrix(0.05,0,0,0.05,82.85000000000001,0)" xlink:href="#aN"/></g><g id="ad"><use transform="matrix(0.05,0,0,0.05,0,0)" xlink:href="#aI"/><use transform="matrix(0.05,0,0,0.05,10,0)" xlink:href="#bI"/><use transform="matrix(0.05,0,0,0.05,14.65,0)" xlink:href="#bI"/><use transform="matrix(0.05,0,0,0.05,19.65,0)" xlink:href="#aI"/><use transform="matrix(0.05,0,0,0.05,29.649999999999995,0)" xlink:href="#aT"/><use transform="matrix(0.05,0,0,0.05,38.65,0)" xlink:href="#aL"/><use transform="matrix(0.05,0,0,0.05,43.65,0)" xlink:href="#aM"/><use transform="matrix(0.05,0,0,0.05,47.6,0)" xlink:href="#bA"/><use transform="matrix(0.05,0,0,0.05,56.6,0)" xlink:href="#aI"/><use transform="matrix(0.05,0,0,0.05,66.6,0)" xlink:href="#aN"/><use transform="matrix(0.05,0,0,0.05,76.6,0)" xlink:href="#aI"/><use transform="matrix(0.05,0,0,0.05,86.6,0)" xlink:href="#bc"/><use transform="matrix(0.05,0,0,0.05,95.6,0)" xlink:href="#bc"/></g><path d="M24 0v-248h52V0H24" id="bX"/><g id="ae"><use transform="matrix(0.05,0,0,0.05,0,0)" xlink:href="#bX"/><use transform="matrix(0.05,0,0,0.05,5,0)" xlink:href="#bs"/><use transform="matrix(0.05,0,0,0.05,15.950000000000001,0)" xlink:href="#bp"/><use transform="matrix(0.05,0,0,0.05,21.900000000000002,0)" xlink:href="#bl"/><use transform="matrix(0.05,0,0,0.05,31.900000000000002,0)" xlink:href="#bm"/><use transform="matrix(0.05,0,0,0.05,38.900000000000006,0)" xlink:href="#bn"/><use transform="matrix(0.05,0,0,0.05,48.900000000000006,0)" xlink:href="#bl"/><use transform="matrix(0.05,0,0,0.05,58.900000000000006,0)" xlink:href="#bs"/><use transform="matrix(0.05,0,0,0.05,69.85000000000001,0)" xlink:href="#bp"/><use transform="matrix(0.05,0,0,0.05,75.80000000000001,0)" xlink:href="#bq"/><use transform="matrix(0.05,0,0,0.05,80.80000000000001,0)" xlink:href="#br"/><use transform="matrix(0.05,0,0,0.05,91.75000000000001,0)" xlink:href="#bs"/></g><path d="M147 0L96-86 75-71V0H25v-261h50v150l67-79h53l-66 74L201 0h-54" id="bY"/><path d="M231 0h-52l-39-155L100 0H48L-1-190h46L77-45c9-52 24-97 36-145h53l37 145 32-145h46" id="bZ"/><g id="af"><use transform="matrix(0.05,0,0,0.05,0,0)" xlink:href="#bY"/><use transform="matrix(0.05,0,0,0.05,10,0)" xlink:href="#bs"/><use transform="matrix(0.05,0,0,0.05,20.950000000000003,0)" xlink:href="#br"/><use transform="matrix(0.05,0,0,0.05,31.900000000000006,0)" xlink:href="#bZ"/><use transform="matrix(0.05,0,0,0.05,45.900000000000006,0)" xlink:href="#bN"/><use transform="matrix(0.05,0,0,0.05,50.900000000000006,0)" xlink:href="#bl"/><use transform="matrix(0.05,0,0,0.05,60.900000000000006,0)" xlink:href="#bJ"/><use transform="matrix(0.05,0,0,0.05,71.85000000000001,0)" xlink:href="#bv"/><use transform="matrix(0.05,0,0,0.05,82.80000000000001,0)" xlink:href="#bl"/></g><g id="ag"><use transform="matrix(0.05,0,0,0.05,0,0)" xlink:href="#bj"/><use transform="matrix(0.05,0,0,0.05,10.950000000000001,0)" xlink:href="#bo"/><use transform="matrix(0.05,0,0,0.05,20.950000000000003,0)" xlink:href="#bk"/><use transform="matrix(0.05,0,0,0.05,30.950000000000003,0)" xlink:href="#bl"/></g><g id="ah"><use transform="matrix(0.05,0,0,0.05,0,0)" xlink:href="#aJ"/><use transform="matrix(0.05,0,0,0.05,14.950000000000001,0)" xlink:href="#aK"/><use transform="matrix(0.05,0,0,0.05,24.950000000000003,0)" xlink:href="#aL"/><use transform="matrix(0.05,0,0,0.05,29.950000000000003,0)" xlink:href="#aM"/><use transform="matrix(0.05,0,0,0.05,33.900000000000006,0)" xlink:href="#aK"/><use transform="matrix(0.05,0,0,0.05,43.900000000000006,0)" xlink:href="#aN"/></g><g id="ai"><use transform="matrix(0.05,0,0,0.05,0,0)" xlink:href="#bd"/><use transform="matrix(0.05,0,0,0.05,14.950000000000001,0)" xlink:href="#aK"/><use transform="matrix(0.05,0,0,0.05,24.950000000000003,0)" xlink:href="#aO"/><use transform="matrix(0.05,0,0,0.05,34.95,0)" xlink:href="#aI"/><use transform="matrix(0.05,0,0,0.05,44.95,0)" xlink:href="#aP"/></g><g id="aj"><use transform="matrix(0.05555555555555555,0,0,0.05555555555555555,0,0)" xlink:href="#bB"/><use transform="matrix(0.05555555555555555,0,0,0.05555555555555555,6.611111111111111,0)" xlink:href="#bC"/></g><path d="M141 0L90-78 38 0H4l68-98-65-92h35l48 74 47-74h35l-64 92 68 98h-35" id="ca"/><g id="ak"><use transform="matrix(0.05555555555555555,0,0,0.05555555555555555,0,0)" xlink:href="#aG"/><use transform="matrix(0.05555555555555555,0,0,0.05555555555555555,13.333333333333332,0)" xlink:href="#ca"/><use transform="matrix(0.05555555555555555,0,0,0.05555555555555555,23.333333333333332,0)" xlink:href="#bD"/><use transform="matrix(0.05555555555555555,0,0,0.05555555555555555,34.44444444444444,0)" xlink:href="#aP"/><use transform="matrix(0.05555555555555555,0,0,0.05555555555555555,38.83333333333333,0)" xlink:href="#aK"/><use transform="matrix(0.05555555555555555,0,0,0.05555555555555555,49.94444444444444,0)" xlink:href="#aS"/><use transform="matrix(0.05555555555555555,0,0,0.05555555555555555,56.55555555555556,0)" xlink:href="#aI"/></g><g id="al"><use transform="matrix(0.05555555555555555,0,0,0.05555555555555555,0,0)" xlink:href="#bA"/><use transform="matrix(0.05555555555555555,0,0,0.05555555555555555,10,0)" xlink:href="#bc"/></g><g id="am"><use transform="matrix(0.05555555555555555,0,0,0.05555555555555555,0,0)" xlink:href="#aG"/><use transform="matrix(0.05555555555555555,0,0,0.05555555555555555,13.333333333333332,0)" xlink:href="#ca"/><use transform="matrix(0.05555555555555555,0,0,0.05555555555555555,23.333333333333332,0)" xlink:href="#bD"/><use transform="matrix(0.05555555555555555,0,0,0.05555555555555555,34.44444444444444,0)" xlink:href="#aP"/><use transform="matrix(0.05555555555555555,0,0,0.05555555555555555,38.83333333333333,0)" xlink:href="#aK"/><use transform="matrix(0.05555555555555555,0,0,0.05555555555555555,49.94444444444444,0)" xlink:href="#aM"/><use transform="matrix(0.05555555555555555,0,0,0.05555555555555555,54.33333333333333,0)" xlink:href="#aL"/></g><g id="an"><use transform="matrix(0.05555555555555555,0,0,0.05555555555555555,0,0)" xlink:href="#bf"/><use transform="matrix(0.05555555555555555,0,0,0.05555555555555555,10,0)" xlink:href="#aN"/><use transform="matrix(0.05555555555555555,0,0,0.05555555555555555,21.11111111111111,0)" xlink:href="#aK"/><use transform="matrix(0.05555555555555555,0,0,0.05555555555555555,32.22222222222222,0)" xlink:href="#aZ"/><use transform="matrix(0.05555555555555555,0,0,0.05555555555555555,46.61111111111111,0)" xlink:href="#aP"/><use transform="matrix(0.05555555555555555,0,0,0.05555555555555555,50.99999999999999,0)" xlink:href="#aI"/><use transform="matrix(0.05555555555555555,0,0,0.05555555555555555,62.11111111111109,0)" xlink:href="#aO"/><use transform="matrix(0.05555555555555555,0,0,0.05555555555555555,73.22222222222221,0)" xlink:href="#bh"/><use transform="matrix(0.05555555555555555,0,0,0.05555555555555555,84.33333333333333,0)" xlink:href="#aI"/></g><g id="ao"><use transform="matrix(0.05555555555555555,0,0,0.05555555555555555,0,0)" xlink:href="#bb"/><use transform="matrix(0.05555555555555555,0,0,0.05555555555555555,11.11111111111111,0)" xlink:href="#aW"/><use transform="matrix(0.05555555555555555,0,0,0.05555555555555555,22.22222222222222,0)" xlink:href="#bc"/><use transform="matrix(0.05555555555555555,0,0,0.05555555555555555,32.22222222222222,0)" xlink:href="#aI"/></g><g id="ap"><use transform="matrix(0.05555555555555555,0,0,0.05555555555555555,0,0)" xlink:href="#bg"/><use transform="matrix(0.05555555555555555,0,0,0.05555555555555555,14.388888888888888,0)" xlink:href="#aI"/><use transform="matrix(0.05555555555555555,0,0,0.05555555555555555,25.5,0)" xlink:href="#aT"/><use transform="matrix(0.05555555555555555,0,0,0.05555555555555555,35.5,0)" xlink:href="#aM"/><use transform="matrix(0.05555555555555555,0,0,0.05555555555555555,39.888888888888886,0)" xlink:href="#aO"/><use transform="matrix(0.05555555555555555,0,0,0.05555555555555555,51,0)" xlink:href="#aI"/></g><g id="aq"><use transform="matrix(0.05555555555555555,0,0,0.05555555555555555,0,0)" xlink:href="#aM"/><use transform="matrix(0.05555555555555555,0,0,0.05555555555555555,4.388888888888888,0)" xlink:href="#aN"/><use transform="matrix(0.05555555555555555,0,0,0.05555555555555555,15.5,0)" xlink:href="#aL"/><use transform="matrix(0.05555555555555555,0,0,0.05555555555555555,21.055555555555557,0)" xlink:href="#aI"/><use transform="matrix(0.05555555555555555,0,0,0.05555555555555555,32.16666666666667,0)" xlink:href="#aS"/><use transform="matrix(0.05555555555555555,0,0,0.05555555555555555,38.777777777777786,0)" xlink:href="#bA"/><use transform="matrix(0.05555555555555555,0,0,0.05555555555555555,48.777777777777786,0)" xlink:href="#aI"/><use transform="matrix(0.05555555555555555,0,0,0.05555555555555555,59.8888888888889,0)" xlink:href="#aN"/><use transform="matrix(0.05555555555555555,0,0,0.05555555555555555,71.00000000000001,0)" xlink:href="#aL"/><use transform="matrix(0.05555555555555555,0,0,0.05555555555555555,76.55555555555557,0)" xlink:href="#aM"/><use transform="matrix(0.05555555555555555,0,0,0.05555555555555555,80.94444444444446,0)" xlink:href="#aK"/><use transform="matrix(0.05555555555555555,0,0,0.05555555555555555,92.05555555555557,0)" xlink:href="#aN"/></g><g id="ar"><use transform="matrix(0.05555555555555555,0,0,0.05555555555555555,0,0)" xlink:href="#aT"/><use transform="matrix(0.05555555555555555,0,0,0.05555555555555555,10,0)" xlink:href="#aW"/><use transform="matrix(0.05555555555555555,0,0,0.05555555555555555,21.11111111111111,0)" xlink:href="#aL"/><use transform="matrix(0.05555555555555555,0,0,0.05555555555555555,26.666666666666664,0)" xlink:href="#aI"/><use transform="matrix(0.05555555555555555,0,0,0.05555555555555555,37.77777777777777,0)" xlink:href="#bh"/><use transform="matrix(0.05555555555555555,0,0,0.05555555555555555,48.888888888888886,0)" xlink:href="#aK"/><use transform="matrix(0.05555555555555555,0,0,0.05555555555555555,60,0)" xlink:href="#aS"/><use transform="matrix(0.05555555555555555,0,0,0.05555555555555555,66.61111111111111,0)" xlink:href="#aH"/></g><g id="as"><use transform="matrix(0.05555555555555555,0,0,0.05555555555555555,0,0)" xlink:href="#aM"/><use transform="matrix(0.05555555555555555,0,0,0.05555555555555555,4.388888888888888,0)" xlink:href="#aN"/><use transform="matrix(0.05555555555555555,0,0,0.05555555555555555,15.5,0)" xlink:href="#aL"/><use transform="matrix(0.05555555555555555,0,0,0.05555555555555555,21.055555555555557,0)" xlink:href="#aI"/><use transform="matrix(0.05555555555555555,0,0,0.05555555555555555,32.16666666666667,0)" xlink:href="#aS"/><use transform="matrix(0.05555555555555555,0,0,0.05555555555555555,38.777777777777786,0)" xlink:href="#bA"/><use transform="matrix(0.05555555555555555,0,0,0.05555555555555555,48.777777777777786,0)" xlink:href="#aI"/><use transform="matrix(0.05555555555555555,0,0,0.05555555555555555,59.8888888888889,0)" xlink:href="#aN"/><use transform="matrix(0.05555555555555555,0,0,0.05555555555555555,71.00000000000001,0)" xlink:href="#aL"/><use transform="matrix(0.05555555555555555,0,0,0.05555555555555555,76.55555555555557,0)" xlink:href="#aM"/><use transform="matrix(0.05555555555555555,0,0,0.05555555555555555,80.94444444444446,0)" xlink:href="#aK"/><use transform="matrix(0.05555555555555555,0,0,0.05555555555555555,92.05555555555557,0)" xlink:href="#aN"/></g><path d="M33-154v-36h34v36H33zM33 0v-36h34V0H33" id="cb"/><g id="at"><use transform="matrix(0.05555555555555555,0,0,0.05555555555555555,0,0)" xlink:href="#aR"/><use transform="matrix(0.05555555555555555,0,0,0.05555555555555555,13.333333333333332,0)" xlink:href="#aK"/><use transform="matrix(0.05555555555555555,0,0,0.05555555555555555,24.444444444444443,0)" xlink:href="#aP"/><use transform="matrix(0.05555555555555555,0,0,0.05555555555555555,28.833333333333332,0)" xlink:href="#bA"/><use transform="matrix(0.05555555555555555,0,0,0.05555555555555555,38.83333333333333,0)" xlink:href="#aI"/><use transform="matrix(0.05555555555555555,0,0,0.05555555555555555,49.94444444444444,0)" xlink:href="#cb"/></g><g id="au"><use transform="matrix(0.05555555555555555,0,0,0.05555555555555555,0,0)" xlink:href="#aJ"/><use transform="matrix(0.05555555555555555,0,0,0.05555555555555555,16.61111111111111,0)" xlink:href="#by"/><use transform="matrix(0.05555555555555555,0,0,0.05555555555555555,27.72222222222222,0)" xlink:href="#aP"/><use transform="matrix(0.05555555555555555,0,0,0.05555555555555555,32.11111111111111,0)" xlink:href="#aL"/><use transform="matrix(0.05555555555555555,0,0,0.05555555555555555,37.666666666666664,0)" xlink:href="#aM"/><use transform="matrix(0.05555555555555555,0,0,0.05555555555555555,42.05555555555555,0)" xlink:href="#bB"/><use transform="matrix(0.05555555555555555,0,0,0.05555555555555555,48.66666666666666,0)" xlink:href="#aW"/><use transform="matrix(0.05555555555555555,0,0,0.05555555555555555,59.77777777777777,0)" xlink:href="#aS"/><use transform="matrix(0.05555555555555555,0,0,0.05555555555555555,66.38888888888889,0)" xlink:href="#bd"/><use transform="matrix(0.05555555555555555,0,0,0.05555555555555555,83,0)" xlink:href="#aI"/><use transform="matrix(0.05555555555555555,0,0,0.05555555555555555,94.11111111111111,0)" xlink:href="#aO"/></g><g id="av"><use transform="matrix(0.05555555555555555,0,0,0.05555555555555555,0,0)" xlink:href="#bb"/><use transform="matrix(0.05555555555555555,0,0,0.05555555555555555,11.11111111111111,0)" xlink:href="#aW"/><use transform="matrix(0.05555555555555555,0,0,0.05555555555555555,22.22222222222222,0)" xlink:href="#aN"/><use transform="matrix(0.05555555555555555,0,0,0.05555555555555555,33.33333333333333,0)" xlink:href="#aO"/><use transform="matrix(0.05555555555555555,0,0,0.05555555555555555,44.44444444444444,0)" xlink:href="#aM"/><use transform="matrix(0.05555555555555555,0,0,0.05555555555555555,48.83333333333333,0)" xlink:href="#aL"/></g><g id="aw"><use transform="matrix(0.05555555555555555,0,0,0.05555555555555555,0,0)" xlink:href="#bD"/><use transform="matrix(0.05555555555555555,0,0,0.05555555555555555,11.11111111111111,0)" xlink:href="#aS"/><use transform="matrix(0.05555555555555555,0,0,0.05555555555555555,17.72222222222222,0)" xlink:href="#aK"/><use transform="matrix(0.05555555555555555,0,0,0.05555555555555555,28.833333333333332,0)" xlink:href="#bb"/><use transform="matrix(0.05555555555555555,0,0,0.05555555555555555,39.94444444444444,0)" xlink:href="#aP"/><use transform="matrix(0.05555555555555555,0,0,0.05555555555555555,44.33333333333333,0)" xlink:href="#aI"/><use transform="matrix(0.05555555555555555,0,0,0.05555555555555555,55.44444444444444,0)" xlink:href="#bd"/></g><path d="M145-31C134-9 116 4 85 4 32 4 16-35 15-94c0-59 17-99 70-100 32-1 48 14 60 33 0-11-1-24 2-32h30l-1 268h-32zM93-21c41 0 51-33 51-76s-8-73-50-73c-40 0-46 35-46 75s5 74 45 74" id="cc"/><g id="ax"><use transform="matrix(0.05,0,0,0.05,0,0)" xlink:href="#aS"/><use transform="matrix(0.05,0,0,0.05,5.95,0)" xlink:href="#aI"/><use transform="matrix(0.05,0,0,0.05,15.949999999999998,0)" xlink:href="#cc"/><use transform="matrix(0.05,0,0,0.05,25.950000000000003,0)" xlink:href="#by"/><use transform="matrix(0.05,0,0,0.05,35.95,0)" xlink:href="#aI"/><use transform="matrix(0.05,0,0,0.05,45.95,0)" xlink:href="#bc"/><use transform="matrix(0.05,0,0,0.05,54.95,0)" xlink:href="#aL"/></g><g id="ay"><use transform="matrix(0.05,0,0,0.05,0,0)" xlink:href="#aS"/><use transform="matrix(0.05,0,0,0.05,5.95,0)" xlink:href="#aI"/><use transform="matrix(0.05,0,0,0.05,15.949999999999998,0)" xlink:href="#bc"/><use transform="matrix(0.05,0,0,0.05,24.95,0)" xlink:href="#bD"/><use transform="matrix(0.05,0,0,0.05,34.95,0)" xlink:href="#aK"/><use transform="matrix(0.05,0,0,0.05,44.95,0)" xlink:href="#aN"/><use transform="matrix(0.05,0,0,0.05,54.95,0)" xlink:href="#bc"/><use transform="matrix(0.05,0,0,0.05,63.95,0)" xlink:href="#aI"/></g><g id="az"><use transform="matrix(0.05,0,0,0.05,0,0)" xlink:href="#aG"/><use transform="matrix(0.05,0,0,0.05,12,0)" xlink:href="#ca"/><use transform="matrix(0.05,0,0,0.05,21,0)" xlink:href="#aI"/><use transform="matrix(0.05,0,0,0.05,31,0)" xlink:href="#aT"/><use transform="matrix(0.05,0,0,0.05,40,0)" xlink:href="#by"/><use transform="matrix(0.05,0,0,0.05,50,0)" xlink:href="#aL"/><use transform="matrix(0.05,0,0,0.05,55,0)" xlink:href="#aI"/></g><g id="aA"><use transform="matrix(0.05,0,0,0.05,0,0)" xlink:href="#aM"/><use transform="matrix(0.05,0,0,0.05,3.95,0)" xlink:href="#aN"/><use transform="matrix(0.05,0,0,0.05,13.949999999999998,0)" xlink:href="#aL"/><use transform="matrix(0.05,0,0,0.05,18.95,0)" xlink:href="#aI"/><use transform="matrix(0.05,0,0,0.05,28.950000000000003,0)" xlink:href="#aS"/><use transform="matrix(0.05,0,0,0.05,34.9,0)" xlink:href="#bA"/><use transform="matrix(0.05,0,0,0.05,43.9,0)" xlink:href="#aI"/><use transform="matrix(0.05,0,0,0.05,53.900000000000006,0)" xlink:href="#aN"/><use transform="matrix(0.05,0,0,0.05,63.900000000000006,0)" xlink:href="#aL"/><use transform="matrix(0.05,0,0,0.05,68.9,0)" xlink:href="#aM"/><use transform="matrix(0.05,0,0,0.05,72.85000000000001,0)" xlink:href="#aK"/><use transform="matrix(0.05,0,0,0.05,82.85000000000001,0)" xlink:href="#aN"/></g><path d="M240-174c0 40-23 61-54 70L253 0h-59l-57-94H76V0H24v-248c93 4 217-23 216 74zM76-134c48-2 112 12 112-38 0-48-66-32-112-35v73" id="cd"/><g id="aB"><use transform="matrix(0.07407407407407408,0,0,0.07407407407407408,0,0)" xlink:href="#cd"/><use transform="matrix(0.07407407407407408,0,0,0.07407407407407408,19.185185185185187,0)" xlink:href="#bl"/><use transform="matrix(0.07407407407407408,0,0,0.07407407407407408,34,0)" xlink:href="#bZ"/><use transform="matrix(0.07407407407407408,0,0,0.07407407407407408,54.74074074074075,0)" xlink:href="#bo"/><use transform="matrix(0.07407407407407408,0,0,0.07407407407407408,69.55555555555557,0)" xlink:href="#bm"/><use transform="matrix(0.07407407407407408,0,0,0.07407407407407408,79.92592592592594,0)" xlink:href="#bJ"/></g><path d="M76-208v77h127v40H76V0H24v-248h183v40H76" id="ce"/><path d="M123 10C108 53 80 86 19 72V37c35 8 53-11 59-39L3-190h52l48 148c12-52 28-100 44-148h51" id="cf"/><g id="aC"><use transform="matrix(0.07407407407407408,0,0,0.07407407407407408,0,0)" xlink:href="#ce"/><use transform="matrix(0.07407407407407408,0,0,0.07407407407407408,16.222222222222225,0)" xlink:href="#bo"/><use transform="matrix(0.07407407407407408,0,0,0.07407407407407408,31.03703703703704,0)" xlink:href="#bu"/><use transform="matrix(0.07407407407407408,0,0,0.07407407407407408,45.851851851851855,0)" xlink:href="#bp"/><use transform="matrix(0.07407407407407408,0,0,0.07407407407407408,54.666666666666686,0)" xlink:href="#br"/><use transform="matrix(0.07407407407407408,0,0,0.07407407407407408,70.8888888888889,0)" xlink:href="#bm"/><use transform="matrix(0.07407407407407408,0,0,0.07407407407407408,81.25925925925927,0)" xlink:href="#cf"/></g></defs></g></svg>